<?xml version="1.0" encoding="UTF-8"?>
<svg id="Capa_1" data-name="Capa 1" xmlns="http://www.w3.org/2000/svg" viewBox="0 0 2904.69 650.24">
  <defs>
    <style>
      .cls-1 {
        stroke: #44cd71;
        stroke-width: 38px;
      }

      .cls-1, .cls-2 {
        fill: #f26b78;
      }

      .cls-1, .cls-3 {
        stroke-miterlimit: 10;
      }

      .cls-4 {
        fill: #fcc459;
      }

      .cls-5 {
        fill: #44cd71;
      }

      .cls-3 {
        fill: #44cd71;
        font-family: NauryzRedKeds, NauryzRedKeds;
        font-size: 257.47px;
        letter-spacing: .02em;
        stroke: #44cd71;
        stroke-width: 8px;
      }
    </style>
  </defs>
  <text class="cls-3" transform="translate(1926.25 530.45)"><tspan x="0" y="0">´</tspan></text>
  <path class="cls-4" d="M125.36,171.32l202.43,134.95c6.67,4.45,15.35,4.45,22.02,0l202.43-134.95c11.79-7.86,11.79-25.18,0-33.03L349.81,3.33c-6.67-4.45-15.35-4.45-22.02,0L125.36,138.29c-11.79,7.86-11.79,25.18,0,33.03Z"/>
  <path class="cls-5" d="M258.07,528.63c-32.89-20.67-59.55-19.49-59.55,16.62,0,40.15,26.66,70.81,59.55,91.48,32.89,20.67,59.55,19.49,59.55-16.62,0-40.15-26.66-70.81-59.55-91.48Z"/>
  <path class="cls-5" d="M79.41,206.62v283.75c0,6.4,5.01,11.67,11.4,12l15.66.81c6.87.36,12.64-5.12,12.64-12v-156.26c0-9.58,10.66-15.31,18.65-10.03l134.77,89.09c3.37,2.23,5.39,5.99,5.39,10.03v191.27c0,4.67,2.71,8.92,6.95,10.9l15.66,7.29c7.97,3.71,17.09-2.11,17.09-10.9v-273.17c0-4.02-2.01-7.77-5.35-10L98.09,196.62c-7.99-5.33-18.69.4-18.69,10Z"/>
  <path class="cls-5" d="M59.55,405.69C26.66,385.02,0,386.2,0,422.31c0,40.15,26.66,70.81,59.55,91.48,32.89,20.67,59.55,19.49,59.55-16.62,0-40.15-26.66-70.81-59.55-91.48Z"/>
  <path class="cls-5" d="M735.73,339.15c-37.95-37.95-83.39-54.05-112.91-24.52-32.83,32.83-13.43,74.96,24.52,112.91,37.95,37.95,83.39,54.05,112.91,24.52,32.83-32.83,13.43-74.96-24.52-112.91Z"/>
  <path class="cls-5" d="M734.05,367.44c37.95-37.95,54.05-83.39,24.52-112.91-32.83-32.83-74.96-13.43-112.91,24.52s-54.05,83.39-24.52,112.91c32.83,32.83,74.96,13.43,112.91-24.52Z"/>
  <line class="cls-1" x1="683.33" y1="360.2" x2="528.42" y2="360.2"/>
  <g>
    <g>
      <path class="cls-5" d="M1030.29,249.62v29.04h-120.19l-13.2-28.91,70.28-155.39h37.21l-70.28,155.39c16.17,0,30.97-.04,44.38-.13h51.8Z"/>
      <path class="cls-5" d="M1034.29,282.66h-126.76l-15.02-32.91,72.09-159.4h45.99l-70.27,155.39c13.65,0,26.46-.05,38.15-.12h55.82v37.04ZM912.67,274.66h113.62v-21.04h-47.8c-13.43.08-28.37.13-44.38.13h-6.2l70.28-155.39h-28.43l-68.46,151.38,11.38,24.92Z"/>
    </g>
    <g>
      <path class="cls-5" d="M1323.96,94.35v184.3h-34.32v-17.85c0-8.88-.69-17.68-2.07-26.4s-3.5-17.27-6.35-25.65c-.59-1.84-1.55-4.55-2.89-8.11-1.34-3.56-3.14-7.62-5.41-12.2-2.26-4.57-5.07-9.47-8.42-14.71-3.35-5.24-7.4-10.43-12.13-15.59-4.74-5.16-10.21-10.12-16.41-14.9-6.2-4.78-13.33-8.99-21.37-12.63s-17.03-6.56-26.97-8.74c-9.93-2.18-20.98-3.27-33.13-3.27-10.56,0-19.97.9-28.22,2.7-8.26,1.8-15.48,4.27-21.69,7.42-6.2,3.14-11.46,6.85-15.78,11.13-4.32,4.28-7.82,8.93-10.5,13.96-2.68,5.03-4.67,10.31-5.97,15.84-1.3,5.53-1.99,11.11-2.07,16.72v.88c0,4.86.63,9.89,1.89,15.09,1.26,5.2,3.27,10.31,6.03,15.34s6.24,9.76,10.43,14.21c4.19,4.44,9.13,8.32,14.83,11.63,5.7,3.31,12.15,5.93,19.36,7.86,7.21,1.93,15.17,2.89,23.89,2.89,9.81,0,19.51-1.38,29.1-4.15,9.6-2.77,18.81-7.02,27.66-12.76,8.84-5.74,17.16-13.05,24.96-21.94,7.79-8.88,14.75-19.4,20.87-31.55l26.02,13.07c-14.33,28.5-32.39,50.02-54.18,64.56-21.79,14.54-46.73,21.81-74.8,21.81h-8.93c-3.6,0-7.67-.23-12.19-.69-4.53-.46-9.43-1.28-14.71-2.45-5.28-1.18-10.77-2.93-16.47-5.28-5.7-2.35-11.5-5.38-17.41-9.11-5.91-3.73-11.71-8.4-17.41-14.02-9.14-8.97-15.99-18.94-20.55-29.92-4.57-10.98-6.85-22.38-6.85-34.2v-1.89c.17-7.71,1.4-15.44,3.71-23.2,2.3-7.75,5.7-15.19,10.18-22.31,4.48-7.12,10.08-13.77,16.78-19.93,6.7-6.16,14.58-11.5,23.63-16.03s19.25-8.09,30.61-10.69c11.36-2.6,23.95-3.9,37.78-3.9,12.24,0,23.57.94,34.01,2.83,10.43,1.89,20.05,4.46,28.85,7.73,8.8,3.27,16.85,7.12,24.14,11.57,7.29,4.44,13.91,9.24,19.86,14.39,5.95,5.15,11.25,10.52,15.9,16.09,4.65,5.58,8.78,11.17,12.38,16.78v-64.74h34.32Z"/>
      <path class="cls-5" d="M1146.32,287.31h-8.93c-3.7,0-7.94-.24-12.6-.71-4.67-.48-9.77-1.33-15.17-2.53-5.5-1.22-11.26-3.07-17.13-5.49-5.88-2.42-11.94-5.59-18.02-9.43-6.12-3.86-12.21-8.76-18.08-14.55-9.47-9.3-16.69-19.81-21.44-31.23-4.75-11.41-7.16-23.43-7.16-35.73v-1.89c.17-8.12,1.48-16.28,3.88-24.34,2.4-8.06,5.97-15.9,10.63-23.3,4.65-7.39,10.53-14.37,17.46-20.74,6.95-6.38,15.21-11.99,24.55-16.66,9.3-4.65,19.9-8.35,31.51-11.01,11.6-2.65,24.61-4,38.67-4,12.41,0,24.09.97,34.72,2.89,10.61,1.92,20.55,4.58,29.53,7.92,9,3.34,17.35,7.35,24.83,11.9,7.45,4.54,14.31,9.51,20.4,14.79,6.08,5.27,11.59,10.84,16.35,16.55,1.84,2.21,3.62,4.44,5.31,6.67v-56.07h42.32v192.3h-42.32v-21.85c0-8.63-.68-17.3-2.02-25.77-1.34-8.44-3.42-16.85-6.19-24.99-.41-1.29-1.01-2.99-1.78-5.11-14.07,25.98-31.65,46.11-52.3,59.89-22.36,14.92-48.27,22.49-77.02,22.49ZM1154.49,93.7c-13.46,0-25.87,1.28-36.89,3.8-10.99,2.51-20.99,6-29.71,10.36-8.68,4.34-16.32,9.52-22.72,15.4-6.41,5.89-11.83,12.32-16.1,19.11-4.27,6.78-7.54,13.96-9.73,21.32-2.19,7.37-3.39,14.82-3.54,22.14v1.8c0,11.24,2.2,22.22,6.55,32.66,4.34,10.43,10.95,20.05,19.66,28.6,5.48,5.4,11.11,9.93,16.75,13.49,5.69,3.59,11.35,6.55,16.8,8.8,5.45,2.24,10.77,3.95,15.82,5.08,5.1,1.13,9.89,1.93,14.25,2.38,4.39.45,8.35.67,11.79.67h8.93c27.14,0,51.56-7.11,72.58-21.14,20.19-13.48,37.34-33.47,51-59.47l-18.88-9.49c-5.81,10.94-12.39,20.63-19.6,28.84-8,9.12-16.68,16.75-25.78,22.65-9.13,5.93-18.8,10.39-28.73,13.25-9.91,2.86-20.08,4.3-30.21,4.3-9.03,0-17.41-1.02-24.92-3.03-7.52-2.01-14.36-4.79-20.34-8.26-6-3.48-11.29-7.64-15.73-12.34-4.4-4.67-8.11-9.72-11.03-15.02-2.92-5.32-5.08-10.81-6.42-16.33-1.33-5.48-2-10.87-2-16.03v-.88c.09-5.94.82-11.85,2.18-17.64,1.37-5.84,3.5-11.5,6.34-16.81,2.86-5.36,6.63-10.38,11.21-14.91,4.59-4.55,10.24-8.54,16.78-11.85,6.47-3.28,14.09-5.89,22.64-7.76,8.49-1.85,18.28-2.79,29.08-2.79,12.38,0,23.81,1.13,33.98,3.36,10.17,2.23,19.51,5.26,27.76,9,8.29,3.76,15.74,8.17,22.16,13.11,6.36,4.9,12.05,10.07,16.91,15.36,4.87,5.3,9.09,10.73,12.55,16.14,3.42,5.36,6.33,10.43,8.64,15.09,1.47,2.96,2.76,5.75,3.86,8.32l.32.16-.14.27c.56,1.33,1.07,2.6,1.53,3.81,1.38,3.68,2.35,6.4,2.96,8.3,2.89,8.5,5.08,17.35,6.49,26.23,1.41,8.88,2.12,17.98,2.12,27.03v13.85h26.32V98.35h-26.32v74.38l-7.37-11.47c-3.5-5.45-7.57-10.96-12.09-16.38-4.49-5.38-9.69-10.64-15.45-15.63-5.75-4.98-12.25-9.69-19.33-14-7.04-4.29-14.93-8.07-23.45-11.23-8.54-3.17-18.02-5.71-28.17-7.55-10.15-1.83-21.36-2.76-33.29-2.76ZM1154.49,122.62c-10.23,0-19.44.88-27.37,2.61-7.89,1.72-14.87,4.1-20.73,7.08-5.8,2.94-10.77,6.44-14.77,10.4-4.01,3.97-7.3,8.35-9.78,13-2.51,4.7-4.39,9.7-5.61,14.87-1.23,5.23-1.89,10.56-1.97,15.87v.82c0,4.53.6,9.28,1.77,14.14,1.17,4.83,3.07,9.65,5.65,14.35,2.59,4.71,5.9,9.21,9.84,13.39,3.91,4.15,8.6,7.82,13.93,10.91,5.37,3.12,11.55,5.63,18.38,7.45,6.83,1.83,14.52,2.76,22.85,2.76,9.38,0,18.8-1.34,28-3.99,9.17-2.64,18.11-6.77,26.59-12.27,8.49-5.51,16.61-12.65,24.13-21.22,7.53-8.58,14.36-18.92,20.3-30.72l1.8-3.57,21.31,10.71c-2.09-4.12-4.68-8.59-7.69-13.3-3.21-5.02-7.15-10.08-11.71-15.04-4.56-4.96-9.91-9.82-15.9-14.44-5.93-4.57-12.85-8.66-20.58-12.16-7.74-3.51-16.55-6.36-26.17-8.47-9.61-2.11-20.46-3.17-32.27-3.17Z"/>
    </g>
    <g>
      <path class="cls-2" d="M1675.95,235.66c-5.62,6.79-12.47,13.1-20.56,18.92-8.09,5.83-17.01,10.88-26.78,15.15-9.76,4.28-20.18,7.61-31.24,9.99-11.06,2.39-22.38,3.58-33.94,3.58s-23.19-1.18-34.38-3.52c-11.19-2.35-21.73-5.66-31.62-9.93-9.89-4.27-18.98-9.38-27.28-15.34-8.3-5.95-15.42-12.51-21.37-19.68-5.95-7.17-10.6-14.83-13.95-23.01-3.35-8.17-5.03-16.62-5.03-25.33s1.68-17.16,5.03-25.33c3.35-8.17,8-15.84,13.95-23.01,5.95-7.17,13.07-13.72,21.37-19.68,8.3-5.95,17.39-11.06,27.28-15.34,9.89-4.28,20.43-7.59,31.62-9.93,11.19-2.34,22.65-3.52,34.38-3.52s22.88,1.2,33.94,3.58c11.06,2.39,21.48,5.7,31.24,9.93,9.76,4.23,18.69,9.26,26.78,15.09,8.09,5.83,14.94,12.13,20.56,18.92l-28.66,17.47c-.75-.92-2.03-2.41-3.83-4.46-1.8-2.05-4.25-4.36-7.35-6.91-3.1-2.55-6.85-5.2-11.25-7.92-4.4-2.72-9.55-5.2-15.46-7.42-5.91-2.22-12.62-4.06-20.12-5.53-7.5-1.46-15.86-2.2-25.08-2.2-15.93,0-29.92,1.91-41.99,5.72-12.07,3.82-22.19,8.82-30.36,15.02-8.17,6.2-14.35,13.26-18.54,21.18-4.19,7.92-6.33,14.02-6.41,18.29-.08,4.27-.13,6.54-.13,6.79,0,8.04,1.95,15.96,5.85,23.76,3.9,7.79,9.87,14.79,17.92,21,8.05,6.2,18.21,11.21,30.49,15.02,12.28,3.81,26.67,5.72,43.18,5.72,9.3,0,17.73-.75,25.27-2.26,7.54-1.51,14.29-3.39,20.24-5.66,5.95-2.26,11.13-4.8,15.53-7.61,4.4-2.81,8.13-5.47,11.19-7.98,3.06-2.52,5.47-4.78,7.23-6.79s2.97-3.39,3.65-4.15l28.66,17.35Z"/>
      <path class="cls-2" d="M1563.44,287.31c-11.94,0-23.79-1.21-35.2-3.6-11.4-2.39-22.29-5.81-32.39-10.18-10.11-4.37-19.54-9.67-28.02-15.76-8.54-6.12-15.98-12.98-22.12-20.37-6.18-7.45-11.09-15.54-14.58-24.04-3.54-8.62-5.33-17.65-5.33-26.85s1.79-18.24,5.33-26.85c3.49-8.51,8.39-16.6,14.58-24.04,6.14-7.39,13.58-14.24,22.12-20.37,8.5-6.09,17.92-11.39,28.03-15.76,10.08-4.36,20.98-7.78,32.38-10.18,11.42-2.39,23.26-3.6,35.21-3.6s23.5,1.24,34.79,3.67c11.27,2.43,22.03,5.85,31.99,10.17,9.98,4.33,19.24,9.54,27.52,15.51,8.33,6,15.5,12.6,21.3,19.62l2.95,3.56-35.58,21.69-2.21-2.69c-.71-.87-1.97-2.34-3.75-4.36-1.65-1.87-3.97-4.05-6.89-6.47-2.95-2.43-6.59-4.99-10.81-7.6-4.16-2.57-9.13-4.95-14.77-7.07-5.68-2.13-12.24-3.93-19.47-5.35-7.22-1.41-15.4-2.12-24.31-2.12-15.44,0-29.16,1.86-40.79,5.53-11.58,3.66-21.39,8.5-29.15,14.4-7.67,5.82-13.53,12.5-17.43,19.87-4.83,9.13-5.9,14.01-5.95,16.5-.08,4.18-.12,6.42-.12,6.71,0,7.38,1.83,14.77,5.42,21.97,3.61,7.22,9.25,13.82,16.78,19.62,7.63,5.88,17.47,10.72,29.23,14.37,11.83,3.68,25.96,5.54,42,5.54,9,0,17.23-.73,24.48-2.18,7.3-1.46,13.89-3.3,19.6-5.47,5.67-2.16,10.65-4.59,14.8-7.24,4.23-2.7,7.87-5.29,10.8-7.7,2.88-2.37,5.16-4.5,6.76-6.33,1.77-2.03,2.99-3.42,3.67-4.18l2.21-2.48,35.47,21.47-2.96,3.57c-5.81,7.02-12.98,13.62-21.3,19.62-8.28,5.96-17.53,11.2-27.51,15.57-9.96,4.36-20.72,7.81-32,10.24-11.29,2.44-22.99,3.67-34.79,3.67ZM1563.44,93.7c-11.39,0-22.68,1.16-33.56,3.43-10.88,2.28-21.26,5.54-30.85,9.69-9.58,4.14-18.51,9.16-26.54,14.92-7.99,5.73-14.92,12.11-20.63,18.98-5.67,6.82-10.15,14.21-13.33,21.97-3.14,7.65-4.73,15.66-4.73,23.82s1.59,16.17,4.73,23.81c3.18,7.76,7.67,15.15,13.33,21.97,5.71,6.87,12.64,13.26,20.63,18.98,8.02,5.75,16.95,10.77,26.54,14.91,9.6,4.15,19.98,7.41,30.85,9.69,10.88,2.28,22.17,3.43,33.56,3.43s22.36-1.18,33.1-3.49c10.76-2.32,21.01-5.6,30.48-9.75,9.46-4.14,18.22-9.1,26.04-14.73,6.36-4.58,11.97-9.51,16.75-14.72l-21.73-13.15c-.43.49-.9,1.03-1.43,1.63-1.91,2.19-4.43,4.56-7.7,7.24-3.18,2.61-7.08,5.39-11.58,8.27-4.61,2.94-10.08,5.62-16.26,7.97-6.12,2.33-13.15,4.29-20.88,5.84-7.77,1.55-16.53,2.34-26.05,2.34-16.84,0-31.77-1.98-44.37-5.9-12.68-3.94-23.36-9.21-31.74-15.68-8.49-6.54-14.9-14.07-19.05-22.38-4.16-8.32-6.27-16.92-6.27-25.55,0-.43.08-4.49.13-6.87.09-4.95,2.34-11.52,6.88-20.08,4.44-8.4,11.06-15.97,19.66-22.5,8.49-6.45,19.12-11.71,31.57-15.65,12.4-3.92,26.94-5.91,43.2-5.91,9.42,0,18.12.76,25.85,2.27,7.67,1.5,14.66,3.42,20.75,5.71,6.12,2.3,11.56,4.92,16.16,7.76,4.53,2.8,8.46,5.57,11.69,8.23,3.3,2.73,5.86,5.13,7.82,7.36.62.71,1.17,1.34,1.66,1.91l21.7-13.23c-4.77-5.2-10.4-10.14-16.76-14.73-7.82-5.63-16.58-10.56-26.03-14.66-9.48-4.11-19.74-7.37-30.49-9.69-10.74-2.32-21.87-3.49-33.1-3.49Z"/>
    </g>
    <g>
      <path class="cls-5" d="M1878.61,203.35c-.08,1.68-.13,3.39-.13,5.15,0,3.27.19,7.04.57,11.31.38,4.28,1.11,8.7,2.2,13.26,1.09,4.57,2.43,8.51,4.02,11.82,1.59,3.31,3.39,5.51,5.41,6.6l-16.22,30.3c-3.27-1.51-6.18-3.46-8.74-5.85-2.56-2.39-4.84-5.09-6.85-8.11-2.01-3.02-3.75-6.24-5.22-9.68-1.47-3.44-2.75-6.96-3.83-10.56-4.78,5.11-10.1,9.81-15.97,14.08-5.87,4.27-12.22,7.98-19.05,11.12-6.83,3.14-14.08,5.62-21.75,7.42s-15.7,2.83-24.08,3.08h-3.14c-7.04,0-14-.78-20.87-2.33-6.87-1.55-13.39-3.85-19.55-6.91-6.16-3.06-11.69-6.66-16.59-10.81-4.9-4.15-9.07-8.61-12.51-13.39-3.44-4.78-6.06-9.74-7.86-14.9-1.8-5.15-2.7-10.2-2.7-15.15,0-8.21,1.36-15.19,4.09-20.93,2.72-5.74,6.24-10.56,10.56-14.46,4.32-3.9,9.18-7.02,14.58-9.37,5.41-2.35,10.81-4.15,16.22-5.41,5.41-1.26,10.52-2.14,15.34-2.64,4.82-.5,8.82-.88,12.01-1.13l1.76-.12c5.11-.42,11-.77,17.66-1.07,6.66-.29,13.68-.5,21.06-.63,7.37-.13,14.9-.19,22.57-.19s15.06.04,22.19.13c0-4.78-1.63-9.74-4.9-14.9s-7.75-9.89-13.45-14.21c-5.7-4.31-12.47-7.88-20.3-10.69-7.84-2.81-16.28-4.21-25.33-4.21-5.03,0-10.2.5-15.53,1.51-5.32,1.01-10.73,2.64-16.22,4.9-5.49,2.26-11.04,5.18-16.66,8.74-5.62,3.56-11.19,7.9-16.72,13.01l-22.13-19.99c6.04-6.79,12.68-12.61,19.93-17.47,7.25-4.86,14.71-8.84,22.38-11.94,7.67-3.1,15.34-5.38,23.01-6.85s14.98-2.2,21.94-2.2c12.4,0,23.47,1.3,33.19,3.9,9.72,2.6,18.25,6.01,25.58,10.25,7.33,4.23,13.53,9.03,18.61,14.39,5.07,5.36,9.2,10.81,12.38,16.34,3.18,5.53,5.49,10.89,6.91,16.09,1.42,5.2,2.14,9.76,2.14,13.7,0,.08-.06.12-.19.12s-.19.04-.19.13h.38v38.72ZM1727.49,237.04c6.12,5.53,12.86,9.6,20.24,12.2,7.37,2.6,15,3.9,22.88,3.9,8.55,0,17.01-1.43,25.39-4.28,8.38-2.85,16.07-6.89,23.07-12.13,7-5.24,12.97-11.52,17.92-18.86,4.94-7.33,8.21-15.53,9.81-24.58-7.12-.08-14.56-.12-22.32-.12s-15.36.06-22.82.19c-7.46.12-14.54.31-21.25.56-6.71.25-12.57.59-17.6,1.01l-1.89.13c-8.47.75-15.42,1.72-20.87,2.89-5.45,1.17-9.76,2.72-12.95,4.65-3.19,1.93-5.41,4.29-6.66,7.1-1.26,2.81-1.89,6.18-1.89,10.12,0,3.19.82,6.18,2.45,8.99,1.63,2.81,3.79,5.55,6.47,8.23Z"/>
      <path class="cls-5" d="M1769.04,287.31h-3.2c-7.3,0-14.62-.82-21.75-2.42-7.16-1.61-14.04-4.05-20.45-7.23-6.42-3.19-12.27-7-17.4-11.34-5.13-4.34-9.56-9.09-13.17-14.11-3.64-5.06-6.47-10.42-8.39-15.91-1.94-5.55-2.93-11.09-2.93-16.47,0-8.77,1.5-16.39,4.47-22.65,2.94-6.19,6.8-11.48,11.49-15.71,4.62-4.17,9.89-7.55,15.67-10.07,5.6-2.43,11.29-4.33,16.9-5.63,5.55-1.29,10.87-2.21,15.83-2.72,4.83-.5,8.9-.89,12.11-1.14l1.79-.13c5.08-.42,11.07-.78,17.77-1.07,6.72-.29,13.84-.51,21.17-.63,7.32-.13,14.94-.19,22.63-.19,6.01,0,11.95.03,17.72.08-.63-2.8-1.91-5.71-3.81-8.71-2.99-4.72-7.2-9.15-12.49-13.16-5.35-4.05-11.82-7.45-19.24-10.11-7.37-2.64-15.44-3.98-23.98-3.98-4.76,0-9.73.48-14.78,1.44-5.03.95-10.22,2.52-15.44,4.67-5.25,2.16-10.64,4.99-16.04,8.42-5.39,3.42-10.82,7.65-16.15,12.57l-2.68,2.48-27.78-25.1,2.64-2.97c6.23-7.01,13.19-13.11,20.69-18.14,7.44-4.99,15.21-9.14,23.11-12.33,7.88-3.19,15.87-5.56,23.75-7.07,7.88-1.51,15.52-2.27,22.69-2.27,12.69,0,24.2,1.36,34.22,4.03,10.01,2.67,18.94,6.26,26.55,10.65,7.63,4.41,14.2,9.49,19.51,15.11,5.26,5.56,9.62,11.32,12.94,17.1,3.34,5.8,5.8,11.53,7.31,17.03,1.09,3.98,1.79,7.66,2.1,11.01h.18v42.92c-.08,1.58-.13,3.25-.13,4.95,0,3.14.18,6.83.55,10.96.36,4.07,1.07,8.33,2.11,12.69,1.02,4.27,2.28,7.97,3.74,11.01,1.51,3.14,2.85,4.36,3.71,4.82l3.5,1.9-19.88,37.13-3.42-1.58c-3.64-1.68-6.94-3.88-9.79-6.56-2.76-2.58-5.27-5.55-7.45-8.81-2.15-3.22-4.02-6.7-5.57-10.33-.66-1.55-1.29-3.12-1.88-4.71-3.69,3.51-7.67,6.82-11.89,9.9-6.06,4.41-12.69,8.29-19.73,11.53-7.05,3.24-14.62,5.83-22.51,7.68-7.9,1.85-16.26,2.92-24.87,3.18h-.06ZM1821.59,167.88c-7.65,0-15.22.06-22.5.19-7.26.12-14.31.33-20.95.63-6.6.29-12.5.65-17.51,1.06l-1.8.13c-3.11.25-7.11.62-11.88,1.12-4.62.48-9.62,1.34-14.85,2.56-5.14,1.2-10.37,2.94-15.53,5.18-4.98,2.16-9.52,5.08-13.5,8.67-3.9,3.52-7.14,7.97-9.63,13.2-2.46,5.17-3.7,11.64-3.7,19.22,0,4.48.83,9.13,2.48,13.83,1.67,4.77,4.13,9.44,7.33,13.88,3.23,4.49,7.21,8.75,11.85,12.67,4.64,3.92,9.95,7.38,15.79,10.28,5.84,2.9,12.11,5.12,18.65,6.59,6.55,1.48,13.28,2.23,19.99,2.23h3.08c8.05-.25,15.86-1.25,23.22-2.97,7.36-1.73,14.42-4.14,20.99-7.16,6.56-3.02,12.73-6.62,18.36-10.72,5.64-4.11,10.82-8.68,15.4-13.58l4.75-5.08,2.01,6.65c1.04,3.44,2.28,6.86,3.68,10.14,1.36,3.19,3,6.23,4.87,9.04,1.83,2.75,3.94,5.24,6.25,7.4,1.34,1.25,2.8,2.37,4.37,3.35l12.76-23.83c-1.44-1.51-2.74-3.47-3.91-5.92-1.71-3.54-3.16-7.79-4.31-12.62-1.13-4.73-1.9-9.39-2.29-13.84-.39-4.37-.58-8.3-.58-11.67,0-1.8.04-3.57.13-5.25v-34.62h-.38v-4c0-.6.12-1.16.34-1.67-.15-3.26-.81-7.03-1.96-11.23-1.33-4.84-3.52-9.94-6.52-15.15-3.02-5.24-6.99-10.48-11.82-15.59-4.78-5.06-10.74-9.66-17.7-13.68-7-4.04-15.28-7.35-24.62-9.85-9.35-2.5-20.17-3.76-32.16-3.76-6.67,0-13.8.72-21.19,2.13-7.37,1.41-14.86,3.64-22.26,6.63-7.38,2.99-14.67,6.88-21.65,11.56-5.88,3.94-11.41,8.6-16.47,13.89l16.45,14.86c4.81-4.22,9.7-7.91,14.57-11,5.79-3.67,11.61-6.72,17.28-9.06,5.71-2.36,11.43-4.08,17-5.14,5.54-1.05,11.01-1.58,16.27-1.58,9.47,0,18.44,1.5,26.68,4.45,8.18,2.93,15.37,6.72,21.37,11.26,6.06,4.59,10.91,9.72,14.42,15.25,3.67,5.78,5.52,11.51,5.52,17.04v4.05l-4.05-.05c-7.13-.08-14.58-.13-22.14-.13ZM1770.62,257.14c-8.3,0-16.44-1.39-24.21-4.13-7.84-2.76-15.11-7.13-21.59-13l-.14-.14c-2.92-2.91-5.31-5.96-7.11-9.05-1.99-3.41-2.99-7.11-2.99-11,0-4.49.75-8.44,2.23-11.75,1.59-3.55,4.36-6.54,8.24-8.89,3.6-2.18,8.24-3.86,14.18-5.14,5.59-1.2,12.78-2.2,21.36-2.96l1.97-.13c5.02-.42,11-.76,17.72-1.01,6.76-.25,13.94-.44,21.33-.57,14.67-.25,30.66-.23,45.25-.07l4.71.05-.82,4.64c-1.68,9.57-5.19,18.35-10.43,26.12-5.17,7.67-11.51,14.34-18.83,19.83-7.31,5.47-15.44,9.75-24.18,12.72-8.76,2.98-17.74,4.49-26.68,4.49ZM1730.25,234.14c5.67,5.12,12,8.93,18.81,11.32,14.46,5.1,30.47,4.77,45.66-.39,7.94-2.7,15.33-6.58,21.96-11.55,6.61-4.95,12.32-10.97,17-17.89,3.75-5.56,6.49-11.73,8.19-18.39-5.67-.05-11.5-.08-17.38-.08-7.73,0-15.39.06-22.75.19-7.34.12-14.46.31-21.17.56-6.6.25-12.46.58-17.42,1l-1.95.13c-8.17.73-15.02,1.68-20.3,2.81-4.99,1.07-8.93,2.48-11.72,4.16-2.5,1.51-4.16,3.25-5.08,5.31-1.02,2.28-1.54,5.13-1.54,8.49,0,2.49.62,4.77,1.91,6.97,1.44,2.48,3.38,4.95,5.78,7.35Z"/>
    </g>
    <g>
      <path class="cls-5" d="M1943.72,278.66h-34.95V94.35h34.95v184.3Z"/>
      <path class="cls-5" d="M1947.72,282.66h-42.95V90.35h42.95v192.3ZM1912.77,274.66h26.95V98.35h-26.95v176.3Z"/>
    </g>
    <g>
      <path class="cls-5" d="M2148.01,186.51c8.13,2.93,15.63,6.52,22.5,10.75,6.87,4.23,13.16,8.78,18.86,13.64,5.7,4.86,10.85,9.91,15.46,15.15,4.61,5.24,8.67,10.37,12.19,15.4,8.38,11.82,15.17,24.22,20.37,37.21h-37.71c-6.54-13.83-14.54-26.19-24.01-37.09-4.02-4.69-8.57-9.26-13.64-13.7-5.07-4.44-10.67-8.44-16.78-12.01-6.12-3.56-12.78-6.45-19.99-8.67-7.21-2.22-14.96-3.37-23.26-3.46-8.3.08-16.03,1.24-23.2,3.46-7.17,2.22-13.81,5.11-19.93,8.67-6.12,3.56-11.74,7.57-16.85,12.01-5.11,4.44-9.68,9.01-13.7,13.7-9.39,10.9-17.35,23.26-23.89,37.09h-37.84c5.2-12.99,11.98-25.39,20.37-37.21,3.6-5.03,7.71-10.16,12.32-15.4,4.61-5.24,9.76-10.29,15.46-15.15,5.7-4.86,11.98-9.41,18.86-13.64,6.87-4.23,14.37-7.81,22.5-10.75-8.13-3.02-15.63-6.62-22.5-10.81-6.87-4.19-13.16-8.74-18.86-13.64-5.7-4.9-10.85-9.95-15.46-15.15-4.61-5.2-8.72-10.31-12.32-15.34-8.38-11.82-15.17-24.22-20.37-37.21h37.84c6.54,13.83,14.5,26.19,23.89,37.09,4.02,4.61,8.59,9.16,13.7,13.64,5.11,4.48,10.73,8.49,16.85,12.01,6.12,3.52,12.76,6.37,19.93,8.55,7.17,2.18,14.9,3.35,23.2,3.52,8.3-.17,16.05-1.34,23.26-3.52,7.21-2.18,13.87-5.03,19.99-8.55,6.12-3.52,11.71-7.52,16.78-12.01,5.07-4.48,9.62-9.03,13.64-13.64,9.47-10.89,17.48-23.26,24.01-37.09h37.71c-5.2,12.99-11.99,25.39-20.37,37.21-3.52,5.03-7.59,10.14-12.19,15.34-4.61,5.2-9.76,10.25-15.46,15.15-5.7,4.9-11.99,9.45-18.86,13.64-6.87,4.19-14.38,7.79-22.5,10.81Z"/>
      <path class="cls-5" d="M2243.3,282.66h-46.16l-1.08-2.29c-6.35-13.43-14.23-25.6-23.42-36.17-3.89-4.54-8.34-9.01-13.26-13.32-4.85-4.25-10.29-8.14-16.16-11.56-5.82-3.39-12.27-6.18-19.15-8.31-6.81-2.1-14.25-3.2-22.12-3.28-7.78.08-15.2,1.18-21.97,3.28-6.85,2.12-13.27,4.92-19.1,8.31-5.88,3.42-11.34,7.32-16.23,11.57-4.94,4.3-9.42,8.77-13.29,13.29-9.12,10.58-16.95,22.75-23.31,36.19l-1.08,2.29h-46.28l2.19-5.49c5.29-13.22,12.29-26.02,20.82-38.04,3.67-5.12,7.9-10.41,12.58-15.73,4.72-5.36,10.06-10.59,15.87-15.55,5.83-4.98,12.35-9.69,19.36-14,4.4-2.71,9.08-5.17,14-7.38-4.92-2.22-9.59-4.69-13.98-7.36-7.02-4.28-13.54-9-19.38-14.02-5.81-5-11.14-10.22-15.85-15.53-4.68-5.28-8.91-10.55-12.58-15.66-8.54-12.04-15.54-24.84-20.83-38.06l-2.19-5.49h46.28l1.08,2.29c6.35,13.44,14.19,25.62,23.3,36.18,3.87,4.44,8.36,8.9,13.31,13.24,4.89,4.29,10.34,8.17,16.2,11.55,5.83,3.35,12.25,6.11,19.09,8.19,6.75,2.06,14.16,3.18,22.03,3.35,7.87-.17,15.3-1.29,22.1-3.35,6.88-2.08,13.33-4.83,19.15-8.19,5.86-3.37,11.28-7.25,16.13-11.54,4.92-4.35,9.39-8.82,13.27-13.27,9.18-10.56,17.06-22.73,23.41-36.17l1.08-2.29h46.16l-2.19,5.49c-5.29,13.22-12.29,26.02-20.82,38.04-3.57,5.1-7.77,10.38-12.46,15.68-4.71,5.31-10.04,10.53-15.85,15.53-5.84,5.03-12.37,9.75-19.38,14.02-4.39,2.68-9.07,5.14-13.98,7.36,4.92,2.2,9.6,4.67,14,7.38,7.01,4.32,13.52,9.03,19.36,14,5.81,4.96,11.15,10.19,15.87,15.55,4.7,5.34,8.89,10.64,12.47,15.75,8.51,12,15.51,24.8,20.8,38.02l2.19,5.49ZM2202.19,274.66h29.18c-4.73-10.7-10.63-21.07-17.61-30.9-3.42-4.89-7.44-9.96-11.94-15.07-4.47-5.07-9.53-10.04-15.06-14.75-5.52-4.71-11.7-9.18-18.36-13.28-6.61-4.07-13.93-7.56-21.76-10.39l-10.28-3.71,10.24-3.8c7.86-2.92,15.19-6.44,21.81-10.48,6.65-4.05,12.82-8.51,18.33-13.26,5.54-4.76,10.61-9.73,15.08-14.77,4.49-5.06,8.5-10.1,11.91-14.98,6.99-9.85,12.9-20.23,17.62-30.92h-29.18c-6.47,13.19-14.37,25.2-23.51,35.71-4.12,4.72-8.83,9.43-14.01,14.01-5.25,4.64-11.12,8.84-17.44,12.48-6.35,3.66-13.36,6.66-20.83,8.91-7.52,2.27-15.7,3.52-24.33,3.69h-.08s-.08,0-.08,0c-8.63-.17-16.8-1.42-24.28-3.69-7.42-2.25-14.41-5.25-20.76-8.91-6.32-3.63-12.2-7.83-17.49-12.47-5.22-4.58-9.96-9.29-14.08-14.02-9.07-10.53-16.93-22.53-23.39-35.72h-29.31c4.72,10.69,10.63,21.06,17.61,30.9,3.49,4.88,7.55,9.93,12.05,15,4.47,5.04,9.54,10.01,15.08,14.77,5.51,4.75,11.68,9.21,18.33,13.26,6.62,4.04,13.96,7.56,21.81,10.48l10.25,3.8-10.28,3.71c-7.83,2.83-15.15,6.32-21.76,10.39-6.66,4.1-12.84,8.57-18.36,13.28-5.52,4.71-10.59,9.67-15.06,14.75-4.51,5.12-8.57,10.2-12.07,15.09-6.96,9.82-12.87,20.19-17.59,30.88h29.3c6.46-13.18,14.31-25.18,23.37-35.7,4.12-4.81,8.87-9.56,14.11-14.11,5.27-4.58,11.15-8.77,17.46-12.45,6.35-3.7,13.33-6.74,20.75-9.04,7.51-2.33,15.7-3.55,24.34-3.64,8.72.09,16.92,1.31,24.47,3.63,7.47,2.3,14.47,5.34,20.82,9.04,6.31,3.68,12.17,7.87,17.41,12.46,5.2,4.56,9.92,9.3,14.04,14.11,9.12,10.5,17.02,22.5,23.49,35.69Z"/>
    </g>
    <g>
      <path class="cls-5" d="M2449.1,240.57c-6.03,7.63-12.63,14.14-19.8,19.55-7.17,5.41-14.56,9.83-22.19,13.26-7.63,3.44-15.34,5.95-23.13,7.54-7.79,1.59-15.34,2.39-22.63,2.39-12.41,0-23.47-1.59-33.19-4.78-9.72-3.18-18.27-7.25-25.65-12.2-7.38-4.94-13.66-10.39-18.86-16.34-5.2-5.95-9.47-11.71-12.82-17.29-3.35-5.57-5.91-10.54-7.67-14.9-1.76-4.36-2.85-7.42-3.27-9.18-4.53-.08-7.63-.14-9.3-.19-1.68-.04-2.77-.11-3.27-.19l.75-29.17h.57c.29,0,.8.02,1.51.06.71.04,1.72.08,3.02.12,1.3.04,2.96.06,4.97.06.92-7.38,2.81-14.67,5.66-21.88,2.85-7.21,6.6-14.08,11.25-20.62s10.12-12.61,16.41-18.23,13.24-10.52,20.87-14.71c7.63-4.19,15.88-7.52,24.77-9.99,8.88-2.47,18.27-3.84,28.16-4.09h3.27c7.12,0,14.16.78,21.12,2.32,6.96,1.55,13.62,3.86,19.99,6.92,6.37,3.06,12.13,6.66,17.29,10.81s9.53,8.61,13.14,13.39c3.6,4.78,6.39,9.74,8.36,14.9,1.97,5.15,2.96,10.21,2.96,15.15,0,8.13-1.3,15.11-3.9,20.93-2.6,5.83-5.97,10.71-10.12,14.65-4.15,3.94-8.82,7.08-14.02,9.43-5.2,2.35-10.42,4.17-15.65,5.47-5.24,1.3-10.2,2.16-14.9,2.58-4.69.42-8.63.71-11.82.88l-3.27.13c-5.11.17-11,.36-17.66.56-6.66.21-13.68.42-21.06.63-7.38.21-13.94.34-19.67.38-5.74.04-10.46.06-14.14.06h-10.94c2.68,6.71,6.56,12.78,11.63,18.23,5.07,5.45,10.81,10.12,17.22,14.02,6.41,3.9,13.22,6.89,20.43,8.99,7.21,2.1,14.33,3.14,21.37,3.14,5.45,0,10.92-.63,16.41-1.88,5.49-1.26,10.92-3.21,16.28-5.85,5.36-2.64,10.56-6.08,15.59-10.31,5.03-4.23,9.81-9.28,14.33-15.15l21.62,20.37ZM2409.5,135.97c-6.03-5.87-12.68-10.14-19.93-12.82-7.25-2.68-14.81-4.02-22.69-4.02-8.47,0-16.87,1.47-25.21,4.4-8.34,2.94-15.97,7.06-22.88,12.38-6.92,5.32-12.82,11.69-17.73,19.11-4.9,7.42-8.19,15.65-9.87,24.71,4.78.08,9.55.12,14.33.12,2.43,0,6.05-.02,10.88-.06,4.82-.04,10.69-.13,17.6-.25,6.91-.12,13.47-.29,19.67-.5,6.2-.21,11.82-.48,16.85-.82l1.89-.12c8.46-.59,15.59-1.46,21.37-2.64,5.78-1.17,10.43-2.74,13.96-4.71,3.52-1.97,6.05-4.4,7.61-7.29,1.55-2.89,2.33-6.26,2.33-10.12,0-6.2-2.72-11.98-8.17-17.35Z"/>
      <path class="cls-5" d="M2361.35,287.31c-12.77,0-24.35-1.67-34.43-4.98-10.03-3.28-18.99-7.55-26.63-12.68-7.63-5.12-14.24-10.85-19.64-17.04-5.33-6.1-9.78-12.1-13.24-17.85-3.44-5.73-6.12-10.93-7.95-15.46-1.1-2.72-1.95-4.95-2.55-6.73-2.99-.06-5.12-.1-6.42-.13-2.46-.06-3.34-.16-3.83-.24l-3.43-.57.95-36.54h4.46c.34,0,.92.02,1.74.07.7.04,1.66.08,2.91.12.42.01.88.03,1.38.04,1.08-6.5,2.89-12.98,5.39-19.32,2.95-7.47,6.89-14.69,11.71-21.47,4.8-6.75,10.52-13.11,17-18.89,6.48-5.79,13.75-10.92,21.61-15.23,7.86-4.32,16.48-7.8,25.62-10.34,9.16-2.55,18.96-3.97,29.13-4.23h.1s3.27,0,3.27,0c7.38,0,14.78.81,21.99,2.42,7.22,1.61,14.24,4.04,20.85,7.21,6.63,3.18,12.7,6.99,18.06,11.3,5.38,4.33,10.03,9.08,13.82,14.1,3.81,5.06,6.81,10.4,8.9,15.88,2.14,5.59,3.22,11.17,3.22,16.58,0,8.65-1.43,16.25-4.24,22.56-2.8,6.28-6.51,11.63-11.02,15.92-4.46,4.23-9.54,7.65-15.13,10.17-5.39,2.43-10.89,4.35-16.34,5.71-5.4,1.34-10.62,2.24-15.5,2.68-4.72.42-8.75.72-11.97.89l-3.32.13c-5.14.17-11.03.36-17.69.57-6.67.21-13.69.42-21.07.63-7.34.21-13.99.34-19.76.38-5.75.04-10.48.06-14.17.06h-4.66c2.22,4.12,4.99,7.97,8.28,11.5,4.79,5.15,10.3,9.63,16.37,13.33,6.09,3.7,12.64,6.58,19.47,8.57,6.81,1.98,13.62,2.98,20.26,2.98,5.12,0,10.34-.6,15.51-1.78,5.16-1.18,10.34-3.04,15.41-5.54,5.05-2.49,10.03-5.78,14.78-9.78,4.79-4.03,9.41-8.92,13.74-14.53l2.7-3.5,27.51,25.91-2.28,2.88c-6.21,7.86-13.12,14.67-20.53,20.26-7.37,5.56-15.09,10.18-22.96,13.72-7.85,3.54-15.92,6.17-23.97,7.81-8.03,1.64-15.91,2.47-23.43,2.47ZM2251.42,204.46c1.78.04,4.63.1,8.54.17l3.1.06.72,3.02c.25,1.07.99,3.43,3.09,8.6,1.67,4.14,4.16,8.97,7.39,14.33,3.21,5.35,7.39,10.97,12.41,16.72,4.94,5.66,11.02,10.93,18.07,15.65,7.04,4.72,15.33,8.66,24.66,11.72,9.28,3.04,20.03,4.58,31.95,4.58,6.99,0,14.33-.78,21.83-2.31,7.48-1.53,14.98-3.98,22.29-7.27,7.32-3.3,14.53-7.61,21.42-12.81,5.96-4.5,11.58-9.87,16.75-16l-15.76-14.84c-3.88,4.65-7.96,8.79-12.17,12.33-5.24,4.42-10.76,8.06-16.4,10.84-5.62,2.76-11.39,4.83-17.15,6.16-5.76,1.32-11.58,1.99-17.3,1.99-7.39,0-14.96-1.11-22.49-3.3-7.5-2.18-14.7-5.35-21.39-9.41-6.7-4.07-12.78-9.02-18.08-14.71-5.38-5.78-9.56-12.33-12.41-19.47l-2.19-5.49h16.84c3.68,0,8.38-.02,14.11-.06,5.72-.04,12.31-.17,19.59-.38,7.37-.21,14.39-.42,21.04-.63,6.66-.21,12.55-.4,17.66-.56l3.24-.13c3.07-.16,6.99-.45,11.62-.87,4.48-.4,9.29-1.23,14.29-2.48,4.98-1.24,10.02-3,14.97-5.23,4.76-2.15,9.11-5.07,12.91-8.68,3.75-3.56,6.85-8.06,9.22-13.38,2.36-5.28,3.55-11.78,3.55-19.3,0-4.43-.91-9.04-2.69-13.72-1.83-4.78-4.46-9.46-7.82-13.92-3.39-4.49-7.58-8.76-12.45-12.68-4.88-3.93-10.44-7.4-16.51-10.32-6.06-2.91-12.5-5.14-19.13-6.62-6.64-1.48-13.46-2.23-20.25-2.23h-3.22c-9.49.24-18.62,1.57-27.14,3.94-8.54,2.38-16.59,5.62-23.91,9.65-7.33,4.03-14.1,8.8-20.13,14.19-6.04,5.39-11.36,11.3-15.81,17.56-4.45,6.25-8.08,12.9-10.79,19.77-2.71,6.86-4.53,13.9-5.41,20.9l-.44,3.5h-3.53c-2.05,0-3.76-.02-5.1-.07-.38-.01-.73-.02-1.07-.04l-.55,21.23ZM2305.53,183.84c-4.81,0-9.66-.04-14.4-.13l-4.72-.08.86-4.64c1.76-9.54,5.29-18.35,10.46-26.18,5.12-7.75,11.39-14.5,18.62-20.07,7.22-5.55,15.29-9.92,23.99-12.99,8.73-3.07,17.66-4.63,26.53-4.63,8.31,0,16.42,1.44,24.08,4.27,7.75,2.87,14.92,7.48,21.33,13.71l.02.02c6.21,6.12,9.37,12.91,9.37,20.2,0,4.5-.94,8.54-2.8,12.01-1.92,3.57-5,6.56-9.18,8.89-3.87,2.16-8.95,3.89-15.11,5.14-5.92,1.2-13.28,2.12-21.89,2.71l-1.9.13c-5.07.34-10.78.62-16.98.83-6.24.21-12.88.38-19.74.5-7.2.13-12.97.21-17.64.25-4.83.04-8.47.06-10.91.06ZM2296.16,175.79c3.11.04,6.24.05,9.36.05,2.42,0,6.04-.02,10.84-.06,4.65-.04,10.39-.12,17.56-.25,6.82-.12,13.42-.29,19.61-.5,6.11-.21,11.73-.48,16.71-.81l1.89-.12c8.25-.57,15.26-1.44,20.84-2.57,5.35-1.08,9.65-2.53,12.8-4.29,2.83-1.58,4.85-3.49,6.04-5.69,1.23-2.29,1.85-5.06,1.85-8.23,0-5.13-2.28-9.87-6.97-14.49-5.6-5.44-11.83-9.46-18.52-11.93-6.77-2.5-13.94-3.77-21.3-3.77-7.97,0-16,1.4-23.88,4.17-7.9,2.78-15.22,6.74-21.77,11.78-6.53,5.03-12.19,11.13-16.83,18.15-3.73,5.65-6.49,11.88-8.24,18.57Z"/>
    </g>
    <g>
      <path class="cls-5" d="M2589.52,123.4h-35.08l-70.15,155.26h-35.33l70.15-155.26h-44.63l13.2-29.04h115.03l-13.2,29.04Z"/>
      <path class="cls-5" d="M2486.88,282.66h-44.1l70.15-155.26h-44.64l16.84-37.04h123.82l-16.84,37.04h-35.07l-70.15,155.26ZM2455.16,274.66h26.55l70.15-155.26h35.08l9.56-21.04h-106.24l-9.56,21.04h44.61l-70.15,155.26Z"/>
    </g>
    <g>
      <path class="cls-5" d="M2874.77,94.35v184.3h-34.32v-17.85c0-8.88-.69-17.68-2.07-26.4s-3.5-17.27-6.35-25.65c-.59-1.84-1.55-4.55-2.89-8.11-1.34-3.56-3.14-7.62-5.41-12.2-2.26-4.57-5.07-9.47-8.42-14.71-3.35-5.24-7.4-10.43-12.13-15.59-4.74-5.16-10.21-10.12-16.41-14.9-6.2-4.78-13.33-8.99-21.37-12.63s-17.03-6.56-26.97-8.74c-9.93-2.18-20.98-3.27-33.13-3.27-10.56,0-19.97.9-28.22,2.7-8.26,1.8-15.48,4.27-21.69,7.42-6.2,3.14-11.46,6.85-15.78,11.13-4.32,4.28-7.82,8.93-10.5,13.96-2.68,5.03-4.67,10.31-5.97,15.84-1.3,5.53-1.99,11.11-2.07,16.72v.88c0,4.86.63,9.89,1.89,15.09,1.26,5.2,3.27,10.31,6.03,15.34s6.24,9.76,10.43,14.21c4.19,4.44,9.13,8.32,14.83,11.63,5.7,3.31,12.15,5.93,19.36,7.86,7.21,1.93,15.17,2.89,23.89,2.89,9.81,0,19.51-1.38,29.1-4.15,9.6-2.77,18.81-7.02,27.66-12.76,8.84-5.74,17.16-13.05,24.96-21.94,7.79-8.88,14.75-19.4,20.87-31.55l26.02,13.07c-14.33,28.5-32.39,50.02-54.18,64.56-21.79,14.54-46.73,21.81-74.8,21.81h-8.93c-3.6,0-7.67-.23-12.19-.69-4.53-.46-9.43-1.28-14.71-2.45-5.28-1.18-10.77-2.93-16.47-5.28-5.7-2.35-11.5-5.38-17.41-9.11-5.91-3.73-11.71-8.4-17.41-14.02-9.14-8.97-15.99-18.94-20.55-29.92-4.57-10.98-6.85-22.38-6.85-34.2v-1.89c.17-7.71,1.4-15.44,3.71-23.2,2.3-7.75,5.7-15.19,10.18-22.31,4.48-7.12,10.08-13.77,16.78-19.93,6.7-6.16,14.58-11.5,23.63-16.03s19.25-8.09,30.61-10.69c11.36-2.6,23.95-3.9,37.78-3.9,12.24,0,23.57.94,34.01,2.83,10.43,1.89,20.05,4.46,28.85,7.73,8.8,3.27,16.85,7.12,24.14,11.57,7.29,4.44,13.91,9.24,19.86,14.39,5.95,5.15,11.25,10.52,15.9,16.09,4.65,5.58,8.78,11.17,12.38,16.78v-64.74h34.32Z"/>
      <path class="cls-5" d="M2697.13,287.31h-8.93c-3.7,0-7.94-.24-12.6-.71-4.67-.48-9.77-1.33-15.17-2.53-5.5-1.22-11.26-3.07-17.13-5.49-5.88-2.42-11.94-5.59-18.02-9.43-6.12-3.86-12.21-8.76-18.08-14.55-9.47-9.3-16.69-19.81-21.44-31.23-4.75-11.41-7.16-23.43-7.16-35.73v-1.89c.17-8.12,1.48-16.28,3.88-24.34,2.4-8.06,5.97-15.9,10.63-23.3,4.65-7.39,10.53-14.37,17.46-20.74,6.95-6.38,15.21-11.99,24.55-16.66,9.3-4.65,19.9-8.35,31.51-11.01,11.6-2.65,24.61-4,38.67-4,12.41,0,24.09.97,34.72,2.89,10.61,1.92,20.55,4.58,29.53,7.92,9,3.34,17.35,7.35,24.83,11.9,7.45,4.54,14.31,9.51,20.4,14.79,6.08,5.27,11.59,10.84,16.35,16.55,1.84,2.21,3.62,4.44,5.31,6.67v-56.07h42.32v192.3h-42.32v-21.85c0-8.63-.68-17.3-2.02-25.77-1.34-8.44-3.42-16.85-6.19-24.99-.41-1.29-1.01-2.99-1.78-5.11-14.07,25.98-31.65,46.11-52.3,59.89-22.36,14.92-48.27,22.49-77.02,22.49ZM2705.3,93.7c-13.46,0-25.87,1.28-36.89,3.8-10.99,2.51-20.99,6-29.71,10.36-8.68,4.34-16.32,9.52-22.72,15.4-6.41,5.89-11.83,12.32-16.1,19.11-4.27,6.78-7.54,13.96-9.73,21.32-2.19,7.37-3.39,14.82-3.54,22.14v1.8c0,11.24,2.2,22.22,6.55,32.66,4.34,10.43,10.95,20.05,19.66,28.6,5.48,5.4,11.11,9.93,16.75,13.49,5.69,3.59,11.35,6.55,16.8,8.8,5.45,2.24,10.77,3.95,15.82,5.08,5.1,1.13,9.89,1.93,14.25,2.38,4.39.45,8.35.67,11.79.67h8.93c27.14,0,51.56-7.11,72.58-21.14,20.19-13.48,37.34-33.47,51-59.47l-18.88-9.49c-5.81,10.94-12.39,20.63-19.6,28.84-8,9.12-16.68,16.75-25.78,22.65-9.13,5.93-18.8,10.39-28.73,13.25-9.91,2.86-20.08,4.3-30.21,4.3-9.03,0-17.41-1.02-24.92-3.03-7.52-2.01-14.36-4.79-20.34-8.26-6-3.48-11.29-7.64-15.73-12.34-4.4-4.67-8.11-9.72-11.03-15.02-2.92-5.32-5.08-10.81-6.42-16.33-1.33-5.48-2-10.87-2-16.03v-.88c.09-5.94.82-11.85,2.18-17.64,1.37-5.84,3.5-11.5,6.34-16.81,2.86-5.36,6.63-10.38,11.21-14.91,4.59-4.55,10.24-8.54,16.78-11.85,6.47-3.28,14.09-5.89,22.64-7.76,8.49-1.85,18.28-2.79,29.08-2.79,12.38,0,23.81,1.13,33.98,3.36,10.17,2.23,19.51,5.26,27.76,9,8.29,3.76,15.74,8.17,22.16,13.11,6.36,4.9,12.05,10.07,16.91,15.36,4.87,5.3,9.09,10.73,12.55,16.14,3.42,5.36,6.33,10.43,8.64,15.09,1.47,2.96,2.76,5.75,3.86,8.32l.32.16-.14.27c.56,1.33,1.07,2.6,1.53,3.81,1.38,3.68,2.35,6.4,2.96,8.3,2.89,8.5,5.08,17.35,6.49,26.23,1.41,8.88,2.12,17.98,2.12,27.03v13.85h26.32V98.35h-26.32v74.38l-7.37-11.47c-3.5-5.45-7.57-10.96-12.09-16.38-4.49-5.38-9.69-10.64-15.45-15.63-5.75-4.98-12.25-9.69-19.33-14-7.04-4.29-14.93-8.07-23.45-11.23-8.54-3.17-18.02-5.71-28.17-7.55-10.15-1.83-21.36-2.76-33.29-2.76ZM2705.3,122.62c-10.23,0-19.44.88-27.37,2.61-7.89,1.72-14.87,4.1-20.73,7.08-5.8,2.94-10.77,6.44-14.77,10.4-4.01,3.97-7.3,8.35-9.78,13-2.51,4.7-4.39,9.7-5.61,14.87-1.23,5.23-1.89,10.56-1.97,15.87v.82c0,4.53.6,9.28,1.77,14.14,1.17,4.83,3.07,9.65,5.65,14.35,2.59,4.71,5.9,9.21,9.84,13.39,3.91,4.15,8.6,7.82,13.93,10.91,5.37,3.12,11.55,5.63,18.38,7.45,6.83,1.83,14.52,2.76,22.85,2.76,9.38,0,18.8-1.34,28-3.99,9.17-2.64,18.11-6.77,26.59-12.27,8.49-5.51,16.61-12.65,24.13-21.22,7.53-8.58,14.36-18.92,20.3-30.72l1.8-3.57,21.31,10.71c-2.09-4.12-4.68-8.59-7.69-13.3-3.21-5.02-7.15-10.08-11.71-15.04-4.56-4.96-9.91-9.82-15.9-14.44-5.93-4.57-12.85-8.66-20.58-12.16-7.74-3.51-16.55-6.36-26.17-8.47-9.61-2.11-20.46-3.17-32.27-3.17Z"/>
    </g>
    <g>
      <path class="cls-5" d="M913.12,402.32c2.77-.33,6.24-.69,10.43-1.07,4.19-.38,8.88-.73,14.08-1.07,5.2-.33,10.88-.61,17.04-.82,6.16-.21,12.63-.31,19.42-.31,9.47,0,19.42.29,29.86.88,10.43.59,20.93,1.62,31.49,3.08,10.56,1.47,20.97,3.48,31.24,6.04,10.27,2.56,19.99,5.83,29.17,9.8,9.18,3.98,17.62,8.74,25.33,14.27,7.71,5.53,14.29,12.01,19.74,19.42,5.45,7.42,9.41,15.4,11.88,23.95,2.47,8.55,3.71,17.35,3.71,26.4,0,2.26-.08,4.57-.25,6.91-.5,9.05-2.18,17.39-5.03,25.02-2.85,7.63-6.56,14.48-11.13,20.55-4.57,6.08-9.85,11.42-15.84,16.03-5.99,4.61-12.47,8.47-19.42,11.57-6.96,3.1-14.25,5.43-21.88,6.98-7.63,1.55-15.3,2.33-23.01,2.33-10.06,0-19.95-1.32-29.67-3.96-9.72-2.64-18.71-6.64-26.97-12.01-8.26-5.36-15.42-12.09-21.5-20.18-6.08-8.09-10.5-17.54-13.26-28.35l28.16-7.17c1.34,5.2,3.39,9.87,6.16,14.02,2.77,4.15,5.99,7.82,9.68,11,3.69,3.19,7.67,5.89,11.94,8.11,4.27,2.22,8.57,4.02,12.89,5.41,4.32,1.38,8.53,2.41,12.63,3.08,4.11.67,7.79,1.01,11.06,1.01,6.96,0,13.58-1.21,19.86-3.65,6.29-2.43,12.01-5.7,17.16-9.81,5.15-4.11,9.6-8.95,13.33-14.52,3.73-5.57,6.49-11.33,8.3-17.29,1.8-5.95,2.7-11.86,2.7-17.72,0-.67-.06-2.83-.19-6.47-.13-3.65-1.61-8.63-4.46-14.96-2.85-6.33-7.08-12.32-12.7-17.98-5.62-5.66-12.89-10.66-21.81-15.02-8.93-4.36-19.63-7.88-32.12-10.56-12.49-2.68-26.99-4.19-43.5-4.53l-70.65,156.9h-36.33l70.91-157.4c-5.37,0-10.86.12-16.47.38-5.62.25-11.02.56-16.22.94-5.2.38-10.04.78-14.52,1.2-4.49.42-8.23.8-11.25,1.13v-31.55Z"/>
      <path class="cls-5" d="M1059.95,596.28c-10.37,0-20.7-1.38-30.72-4.1-10.08-2.74-19.53-6.95-28.1-12.51-8.61-5.59-16.19-12.7-22.52-21.13-5.53-7.36-9.79-15.88-12.71-25.37l-26.33,58.46h-45.11l70.88-157.34c-3.32.06-6.69.17-10.08.32-5.53.25-10.95.56-16.11.93-5.14.38-10,.78-14.44,1.19-4.43.42-8.19.79-11.18,1.12l-4.44.49v-39.57l3.52-.42c2.84-.34,6.39-.71,10.56-1.08,4.18-.38,8.95-.74,14.18-1.08,5.23-.34,11.01-.61,17.16-.83,6.26-.21,12.83-.32,19.56-.32,9.48,0,19.6.3,30.08.89,10.49.59,21.19,1.64,31.82,3.11,10.65,1.48,21.3,3.54,31.66,6.12,10.43,2.6,20.45,5.97,29.79,10.02,9.4,4.08,18.17,9.02,26.07,14.69,8.01,5.75,14.96,12.58,20.63,20.31,5.7,7.76,9.91,16.24,12.5,25.21,2.56,8.88,3.87,18.13,3.87,27.51,0,2.34-.09,4.77-.26,7.2-.52,9.35-2.29,18.16-5.27,26.13-2.97,7.95-6.9,15.2-11.68,21.56-4.76,6.33-10.35,11.99-16.6,16.8-6.22,4.79-13.03,8.84-20.24,12.05-7.18,3.2-14.82,5.64-22.71,7.24-7.85,1.6-15.86,2.41-23.8,2.41ZM973.51,530.65c2.64,8.68,6.51,16.43,11.51,23.08,5.76,7.67,12.65,14.14,20.48,19.23,7.87,5.11,16.56,8.98,25.84,11.5,16.49,4.48,33.94,5.01,50.83,1.58,7.31-1.49,14.39-3.74,21.04-6.71,6.63-2.95,12.89-6.68,18.61-11.08,5.68-4.37,10.75-9.5,15.08-15.26,4.32-5.74,7.87-12.32,10.58-19.55,2.7-7.22,4.3-15.24,4.78-23.84.16-2.31.25-4.54.25-6.69,0-8.63-1.19-17.14-3.55-25.29-2.33-8.05-6.12-15.69-11.26-22.69-5.18-7.04-11.52-13.28-18.85-18.54-7.44-5.34-15.72-10-24.59-13.85-8.94-3.87-18.54-7.1-28.54-9.59-10.08-2.51-20.45-4.51-30.82-5.96-10.41-1.44-20.9-2.47-31.17-3.05-10.33-.58-20.3-.88-29.63-.88-6.63,0-13.12.11-19.29.31-6.07.21-11.76.48-16.91.81-5.16.33-9.87.69-13.98,1.06-2.5.22-4.77.45-6.79.66v23.54c2.07-.21,4.37-.43,6.88-.67,4.49-.42,9.4-.82,14.6-1.2,5.23-.38,10.73-.7,16.33-.95,5.63-.25,11.23-.38,16.65-.38h6.19l-70.91,157.4h27.56l70.68-156.95,2.64.05c16.69.34,31.58,1.89,44.26,4.61,12.75,2.74,23.86,6.4,33.04,10.88,9.29,4.54,16.99,9.85,22.9,15.8,5.93,5.97,10.47,12.42,13.51,19.15,3.09,6.87,4.67,12.26,4.81,16.47.19,5.52.19,6.34.19,6.61,0,6.23-.97,12.58-2.88,18.88-1.91,6.3-4.87,12.48-8.8,18.35-3.94,5.89-8.71,11.08-14.16,15.42-5.44,4.34-11.57,7.84-18.21,10.41-6.72,2.6-13.88,3.92-21.31,3.92-3.48,0-7.42-.36-11.71-1.06-4.28-.7-8.72-1.78-13.21-3.22-4.51-1.45-9.06-3.35-13.51-5.67-4.53-2.35-8.81-5.26-12.71-8.63-3.94-3.4-7.43-7.37-10.39-11.81-2.31-3.46-4.17-7.29-5.57-11.41l-20.47,5.21ZM999.6,515.76l1,3.86c1.22,4.73,3.11,9.04,5.62,12.8,2.56,3.83,5.57,7.26,8.97,10.19,3.44,2.97,7.19,5.52,11.17,7.59,4.05,2.11,8.18,3.84,12.26,5.15,4.11,1.32,8.17,2.31,12.06,2.94,3.87.63,7.37.95,10.42.95,6.43,0,12.63-1.14,18.42-3.38,5.88-2.27,11.3-5.37,16.11-9.2,4.81-3.83,9.01-8.41,12.5-13.62,3.49-5.22,6.11-10.68,7.79-16.22,1.68-5.55,2.53-11.12,2.53-16.57,0-.36-.02-1.65-.19-6.34-.07-2.13-.85-6.2-4.11-13.46-2.64-5.86-6.64-11.51-11.89-16.8-5.27-5.31-12.25-10.1-20.73-14.25-8.59-4.19-19.09-7.64-31.21-10.24-11.51-2.47-24.99-3.94-40.1-4.37l-39.8,88.39,29.19-7.43Z"/>
    </g>
    <g>
      <path class="cls-5" d="M1373.24,549.53c-6.03,7.63-12.63,14.14-19.8,19.55-7.17,5.41-14.56,9.83-22.19,13.26-7.63,3.44-15.34,5.95-23.13,7.54-7.79,1.59-15.34,2.39-22.63,2.39-12.41,0-23.47-1.59-33.19-4.78-9.72-3.18-18.27-7.25-25.65-12.2-7.38-4.94-13.66-10.39-18.86-16.34-5.2-5.95-9.47-11.71-12.82-17.29-3.35-5.57-5.91-10.54-7.67-14.9-1.76-4.36-2.85-7.42-3.27-9.18-4.53-.08-7.63-.14-9.3-.19-1.68-.04-2.77-.11-3.27-.19l.75-29.17h.57c.29,0,.8.02,1.51.06.71.04,1.72.08,3.02.12,1.3.04,2.96.06,4.97.06.92-7.38,2.81-14.67,5.66-21.88,2.85-7.21,6.6-14.08,11.25-20.62s10.12-12.61,16.41-18.23,13.24-10.52,20.87-14.71c7.63-4.19,15.88-7.52,24.77-9.99,8.88-2.47,18.27-3.84,28.16-4.09h3.27c7.12,0,14.16.78,21.12,2.32,6.96,1.55,13.62,3.86,19.99,6.92,6.37,3.06,12.13,6.66,17.29,10.81s9.53,8.61,13.14,13.39c3.6,4.78,6.39,9.74,8.36,14.9,1.97,5.15,2.96,10.21,2.96,15.15,0,8.13-1.3,15.11-3.9,20.93-2.6,5.83-5.97,10.71-10.12,14.65-4.15,3.94-8.82,7.08-14.02,9.43-5.2,2.35-10.42,4.17-15.65,5.47-5.24,1.3-10.2,2.16-14.9,2.58-4.69.42-8.63.71-11.82.88l-3.27.13c-5.11.17-11,.36-17.66.56-6.66.21-13.68.42-21.06.63-7.38.21-13.94.34-19.67.38-5.74.04-10.46.06-14.14.06h-10.94c2.68,6.71,6.56,12.78,11.63,18.23,5.07,5.45,10.81,10.12,17.22,14.02,6.41,3.9,13.22,6.89,20.43,8.99,7.21,2.1,14.33,3.14,21.37,3.14,5.45,0,10.92-.63,16.41-1.88,5.49-1.26,10.92-3.21,16.28-5.85,5.36-2.64,10.56-6.08,15.59-10.31,5.03-4.23,9.81-9.28,14.33-15.15l21.62,20.37ZM1333.64,444.93c-6.03-5.87-12.68-10.14-19.93-12.82-7.25-2.68-14.81-4.02-22.69-4.02-8.47,0-16.87,1.47-25.21,4.4-8.34,2.94-15.97,7.06-22.88,12.38-6.92,5.32-12.82,11.69-17.73,19.11-4.9,7.42-8.19,15.65-9.87,24.71,4.78.08,9.55.12,14.33.12,2.43,0,6.05-.02,10.88-.06,4.82-.04,10.69-.13,17.6-.25,6.91-.12,13.47-.29,19.67-.5,6.2-.21,11.82-.48,16.85-.82l1.89-.12c8.46-.59,15.59-1.46,21.37-2.64,5.78-1.17,10.43-2.74,13.96-4.71,3.52-1.97,6.05-4.4,7.61-7.29,1.55-2.89,2.33-6.26,2.33-10.12,0-6.2-2.72-11.98-8.17-17.35Z"/>
      <path class="cls-5" d="M1285.49,596.28c-12.77,0-24.35-1.67-34.43-4.98-10.03-3.28-18.99-7.55-26.63-12.68-7.63-5.12-14.24-10.85-19.64-17.04-5.33-6.1-9.78-12.1-13.24-17.85-3.44-5.73-6.12-10.93-7.95-15.46-1.1-2.72-1.95-4.95-2.55-6.73-2.99-.06-5.12-.1-6.42-.13-2.46-.06-3.34-.16-3.83-.24l-3.43-.57.95-36.54h4.46c.34,0,.92.02,1.74.07.7.04,1.66.08,2.91.12.42.01.88.03,1.38.04,1.08-6.5,2.89-12.98,5.39-19.32,2.95-7.47,6.89-14.69,11.71-21.47,4.8-6.75,10.52-13.11,17-18.89,6.48-5.79,13.75-10.92,21.61-15.23,7.86-4.32,16.48-7.8,25.62-10.34,9.16-2.55,18.96-3.97,29.13-4.23h.1s3.27,0,3.27,0c7.38,0,14.78.81,21.99,2.42,7.22,1.61,14.24,4.04,20.85,7.21,6.63,3.18,12.7,6.99,18.06,11.3,5.38,4.33,10.03,9.08,13.82,14.1,3.81,5.06,6.81,10.4,8.9,15.88,2.14,5.59,3.22,11.17,3.22,16.58,0,8.65-1.43,16.25-4.24,22.56-2.8,6.28-6.51,11.63-11.02,15.92-4.46,4.23-9.54,7.65-15.13,10.17-5.39,2.43-10.89,4.35-16.34,5.71-5.4,1.34-10.62,2.24-15.5,2.68-4.72.42-8.75.72-11.97.89l-3.32.13c-5.14.17-11.03.36-17.69.57-6.67.21-13.69.42-21.07.63-7.34.21-13.99.34-19.76.38-5.75.04-10.48.06-14.17.06h-4.66c2.22,4.12,4.99,7.97,8.28,11.5,4.79,5.15,10.3,9.63,16.37,13.33,6.09,3.7,12.64,6.58,19.47,8.57,6.81,1.98,13.62,2.98,20.26,2.98,5.12,0,10.34-.6,15.51-1.78,5.16-1.18,10.34-3.04,15.41-5.54,5.05-2.49,10.03-5.78,14.78-9.78,4.79-4.03,9.41-8.92,13.74-14.53l2.7-3.5,27.51,25.91-2.28,2.88c-6.21,7.86-13.12,14.67-20.53,20.26-7.37,5.56-15.09,10.18-22.96,13.72-7.85,3.54-15.92,6.17-23.97,7.81-8.03,1.64-15.91,2.47-23.43,2.47ZM1175.56,513.43c1.78.04,4.63.1,8.54.17l3.1.06.72,3.02c.25,1.07.99,3.43,3.09,8.6,1.67,4.14,4.16,8.97,7.39,14.33,3.21,5.35,7.39,10.97,12.41,16.72,4.94,5.66,11.02,10.93,18.07,15.65,7.04,4.72,15.33,8.66,24.66,11.72,9.28,3.04,20.03,4.58,31.95,4.58,6.99,0,14.33-.78,21.83-2.31,7.48-1.53,14.98-3.98,22.29-7.27,7.32-3.3,14.53-7.61,21.42-12.81,5.96-4.5,11.58-9.87,16.75-16l-15.76-14.84c-3.88,4.65-7.96,8.79-12.17,12.33-5.24,4.42-10.76,8.06-16.4,10.84-5.62,2.76-11.39,4.83-17.15,6.16-5.76,1.32-11.58,1.99-17.3,1.99-7.39,0-14.96-1.11-22.49-3.3-7.5-2.18-14.7-5.35-21.39-9.41-6.7-4.07-12.78-9.02-18.08-14.71-5.38-5.78-9.56-12.33-12.41-19.47l-2.19-5.49h16.84c3.68,0,8.38-.02,14.11-.06,5.72-.04,12.31-.17,19.59-.38,7.37-.21,14.39-.42,21.04-.63,6.66-.21,12.55-.4,17.66-.56l3.24-.13c3.07-.16,6.99-.45,11.62-.87,4.48-.4,9.29-1.23,14.29-2.48,4.98-1.24,10.02-3,14.97-5.23,4.76-2.15,9.11-5.07,12.91-8.68,3.75-3.56,6.85-8.06,9.22-13.38,2.36-5.28,3.55-11.78,3.55-19.3,0-4.43-.91-9.04-2.69-13.72-1.83-4.78-4.46-9.46-7.82-13.92-3.39-4.49-7.58-8.76-12.45-12.68-4.88-3.93-10.44-7.4-16.51-10.32-6.06-2.91-12.5-5.14-19.13-6.62-6.64-1.48-13.46-2.23-20.25-2.23h-3.22c-9.49.24-18.62,1.57-27.14,3.94-8.54,2.38-16.59,5.62-23.91,9.65-7.33,4.03-14.1,8.8-20.13,14.19-6.04,5.39-11.36,11.3-15.81,17.56-4.45,6.25-8.08,12.9-10.79,19.77-2.71,6.86-4.53,13.9-5.41,20.9l-.44,3.5h-3.53c-2.05,0-3.76-.02-5.1-.07-.38-.01-.73-.02-1.07-.04l-.55,21.23ZM1229.67,492.81c-4.81,0-9.66-.04-14.4-.13l-4.72-.08.86-4.64c1.76-9.54,5.29-18.35,10.46-26.18,5.12-7.75,11.39-14.5,18.62-20.07,7.22-5.55,15.29-9.92,23.99-12.99,8.73-3.07,17.66-4.63,26.53-4.63,8.31,0,16.42,1.44,24.08,4.27,7.75,2.87,14.92,7.48,21.33,13.71l.02.02c6.21,6.12,9.37,12.91,9.37,20.2,0,4.5-.94,8.54-2.8,12.01-1.92,3.57-5,6.56-9.18,8.89-3.87,2.16-8.95,3.89-15.11,5.14-5.92,1.2-13.28,2.12-21.89,2.71l-1.9.13c-5.07.34-10.78.62-16.98.83-6.24.21-12.88.38-19.74.5-7.2.13-12.97.21-17.64.25-4.83.04-8.47.06-10.91.06ZM1220.31,484.76c3.11.04,6.24.05,9.36.05,2.42,0,6.04-.02,10.84-.06,4.65-.04,10.39-.12,17.56-.25,6.82-.12,13.42-.29,19.61-.5,6.11-.21,11.73-.48,16.71-.81l1.89-.12c8.25-.57,15.26-1.44,20.84-2.57,5.35-1.08,9.65-2.53,12.8-4.29,2.83-1.58,4.85-3.49,6.04-5.69,1.23-2.29,1.85-5.06,1.85-8.23,0-5.13-2.28-9.87-6.97-14.49-5.6-5.44-11.83-9.46-18.52-11.93-6.77-2.5-13.94-3.77-21.3-3.77-7.97,0-16,1.4-23.88,4.17-7.9,2.78-15.22,6.74-21.77,11.78-6.53,5.03-12.19,11.13-16.83,18.15-3.73,5.65-6.49,11.88-8.24,18.57Z"/>
    </g>
    <g>
      <path class="cls-5" d="M1829.96,403.19v184.43h-35.2v-151.62c-3.1.92-7.27,2.29-12.51,4.09-5.24,1.8-11.17,4-17.79,6.6-6.62,2.6-13.72,5.59-21.31,8.99-7.59,3.39-15.27,7.17-23.07,11.31-7.79,4.15-15.53,8.63-23.19,13.45-7.67,4.82-14.86,9.95-21.56,15.4,5.61,7.12,9.93,14.06,12.95,20.81,3.02,6.75,5.01,12.72,5.97,17.91.96,5.2,1.45,9.77,1.45,13.7,0,1.59-.15,4.11-.44,7.54-.29,3.44-1.13,7.31-2.51,11.63-1.38,4.32-3.08,8.07-5.09,11.25-2.01,3.19-3.98,5.66-5.91,7.42-3.94,3.69-8.47,6.37-13.58,8.04-5.11,1.68-10.31,2.52-15.59,2.52-5.7,0-11.19-.9-16.47-2.7-5.28-1.8-9.72-4.42-13.33-7.86-4.11-3.85-7.44-9.01-9.99-15.46-2.56-6.45-3.83-13.71-3.83-21.75s1.57-16.62,4.71-25.71c3.14-9.09,8.32-18.21,15.53-27.34-5.95-4.86-12.26-9.47-18.92-13.83-6.66-4.36-13.5-8.49-20.49-12.38-7-3.9-14.06-7.54-21.18-10.94-7.12-3.39-14.1-6.49-20.93-9.3-6.83-2.81-13.45-5.34-19.86-7.61-6.41-2.26-12.43-4.19-18.04-5.78v151.62h-35.2v-184.43h31.93c6.45,1.76,13.58,3.96,21.37,6.6,7.79,2.64,15.94,5.64,24.45,8.99,8.5,3.35,17.22,7.06,26.15,11.13,8.93,4.07,17.71,8.44,26.34,13.14,8.63,4.7,16.99,9.68,25.08,14.96,8.09,5.28,15.57,10.77,22.44,16.47,7.96-6.62,17.05-13.24,27.28-19.86,10.22-6.62,21.48-13.01,33.76-19.17,12.28-6.16,25.52-11.98,39.73-17.47,14.21-5.49,29.23-10.41,45.07-14.77h31.81ZM1663.64,549.78c0-5.87-1.01-11.46-3.02-16.78-2.01-5.32-4.78-10.5-8.3-15.53-3.52,5.03-6.29,10.21-8.3,15.53-2.01,5.32-3.02,10.92-3.02,16.78,0,2.01.15,4.02.44,6.04.29,2.01.84,3.86,1.63,5.53.8,1.68,1.95,3.04,3.46,4.09,1.51,1.05,3.48,1.57,5.91,1.57s4.25-.54,5.72-1.63c1.47-1.09,2.6-2.47,3.39-4.15.8-1.68,1.34-3.54,1.63-5.59.29-2.05.44-4,.44-5.85Z"/>
      <path class="cls-5" d="M1652.57,600.68c-6.11,0-12.08-.98-17.76-2.92-5.81-1.98-10.79-4.93-14.8-8.75-4.5-4.22-8.19-9.91-10.95-16.88-2.73-6.89-4.12-14.7-4.12-23.22s1.66-17.54,4.93-27.02c2.91-8.43,7.53-16.94,13.75-25.36-4.94-3.88-10.16-7.63-15.56-11.16-6.56-4.29-13.37-8.41-20.25-12.24-6.89-3.84-13.94-7.48-20.96-10.82-7.01-3.34-13.98-6.44-20.73-9.21-6.73-2.77-13.35-5.3-19.67-7.54-4.41-1.55-8.66-2.96-12.71-4.2v150.26h-43.2v-192.43h36.47l.52.14c6.52,1.78,13.79,4.02,21.6,6.67,7.78,2.63,16.07,5.68,24.63,9.05,8.54,3.37,17.4,7.14,26.34,11.21,8.99,4.09,17.93,8.56,26.59,13.26,8.71,4.74,17.24,9.83,25.36,15.13,7.18,4.69,13.98,9.61,20.25,14.65,7.45-6.02,15.88-12.08,25.11-18.05,10.31-6.68,21.8-13.2,34.14-19.39,12.33-6.18,25.81-12.12,40.08-17.63,14.28-5.51,29.57-10.53,45.45-14.9l.52-.14h36.35v192.43h-43.2v-150.17c-2.12.69-4.53,1.5-7.21,2.42-5.19,1.79-11.13,3.99-17.63,6.54-6.54,2.56-13.65,5.56-21.14,8.92-7.46,3.34-15.14,7.1-22.82,11.19-7.68,4.09-15.4,8.56-22.94,13.31-6.36,4-12.44,8.26-18.13,12.7,4.65,6.28,8.36,12.48,11.04,18.49,3.13,7,5.23,13.33,6.25,18.82,1,5.42,1.51,10.28,1.51,14.43,0,1.71-.15,4.29-.46,7.88-.32,3.73-1.22,7.94-2.69,12.51-1.48,4.62-3.34,8.71-5.52,12.17-2.22,3.52-4.38,6.21-6.59,8.24-4.31,4.04-9.38,7.04-15.03,8.89-5.5,1.8-11.16,2.71-16.84,2.71ZM1505.76,430.71l5.09,1.45c5.67,1.61,11.82,3.58,18.28,5.86,6.45,2.28,13.2,4.86,20.05,7.68,6.88,2.83,13.99,5.99,21.13,9.39,7.17,3.42,14.37,7.13,21.41,11.05,7.04,3.92,14.02,8.14,20.74,12.53,6.75,4.41,13.23,9.15,19.26,14.08l3.05,2.49-2.44,3.09c-6.89,8.74-11.9,17.54-14.89,26.17-2.98,8.63-4.49,16.84-4.49,24.4s1.2,14.33,3.55,20.28c2.33,5.88,5.36,10.59,9.01,14.02,3.19,3.04,7.18,5.38,11.88,6.99,9.31,3.17,19.75,3.38,29.52.17,4.53-1.49,8.6-3.9,12.09-7.17,1.69-1.55,3.45-3.77,5.26-6.63,1.82-2.88,3.39-6.36,4.66-10.34,1.28-4,2.07-7.62,2.34-10.75.28-3.31.43-5.74.43-7.2,0-3.67-.46-8.03-1.38-12.97-.9-4.87-2.82-10.59-5.69-17.01-2.87-6.41-7.05-13.13-12.44-19.96l-2.44-3.09,3.06-2.49c6.79-5.52,14.18-10.79,21.95-15.68,7.71-4.84,15.6-9.42,23.44-13.6,7.85-4.17,15.69-8.02,23.32-11.43,7.6-3.4,14.83-6.45,21.48-9.06,6.61-2.59,12.65-4.83,17.95-6.66,5.25-1.81,9.51-3.2,12.67-4.14l5.14-1.53v152.98h27.2v-176.43h-27.26c-15.44,4.27-30.3,9.15-44.17,14.5-14.03,5.42-27.28,11.25-39.37,17.32-12.08,6.06-23.31,12.44-33.38,18.95-10.03,6.5-19.08,13.08-26.9,19.58l-2.55,2.12-2.56-2.12c-6.73-5.58-14.15-11.03-22.07-16.2-7.94-5.18-16.28-10.16-24.81-14.8-8.49-4.62-17.27-8.99-26.08-13.01-8.81-4.01-17.54-7.73-25.96-11.05-8.44-3.33-16.61-6.33-24.27-8.92-7.46-2.53-14.39-4.68-20.63-6.39h-27.39v176.43h27.2v-152.91ZM1652.45,571.01c-3.25,0-6.01-.77-8.19-2.29-2.08-1.44-3.69-3.35-4.79-5.66-.96-2.02-1.63-4.27-1.98-6.67-.32-2.18-.48-4.4-.48-6.61,0-6.32,1.1-12.44,3.28-18.2,2.12-5.61,5.07-11.13,8.76-16.41l3.28-4.68,3.28,4.68c3.69,5.28,6.64,10.8,8.76,16.4,2.17,5.75,3.28,11.88,3.28,18.2,0,2.02-.16,4.17-.48,6.41-.35,2.45-1.02,4.72-1.98,6.75-1.08,2.27-2.63,4.17-4.62,5.64-2.16,1.61-4.89,2.42-8.1,2.42ZM1652.32,524.89c-1.82,3.13-3.34,6.31-4.56,9.52-1.83,4.85-2.76,10.02-2.76,15.37,0,1.82.13,3.65.4,5.46.23,1.61.67,3.09,1.29,4.39.5,1.05,1.19,1.87,2.13,2.52.82.57,2.04.86,3.63.86,1.46,0,2.58-.28,3.33-.85.94-.7,1.65-1.57,2.17-2.66.62-1.3,1.05-2.8,1.29-4.44.26-1.86.4-3.64.4-5.28,0-5.35-.93-10.52-2.76-15.37-1.21-3.21-2.74-6.4-4.56-9.52Z"/>
    </g>
    <g>
      <path class="cls-5" d="M2043.8,514.08c-.08,1.26-.13,2.56-.13,3.9,0,3.69.21,7.78.63,12.26.42,4.48,1.17,9.01,2.26,13.58,1.09,4.57,2.43,8.51,4.02,11.82,1.59,3.31,3.39,5.51,5.41,6.6l-17.1,30.3c-3.61-1.93-7.08-4.71-10.43-8.36-3.35-3.65-6.35-7.86-8.99-12.63s-4.76-9.99-6.35-15.65c-1.59-5.66-2.47-11.5-2.64-17.54-1.51,1.68-3.44,3.92-5.78,6.73-2.35,2.81-5.11,5.89-8.3,9.24-3.19,3.35-6.73,6.81-10.62,10.37-3.9,3.56-8.15,6.94-12.76,10.12-4.61,3.19-9.54,6.08-14.77,8.67-5.24,2.6-10.75,4.61-16.53,6.04-2.43.67-5.34,1.21-8.74,1.63-3.39.42-7.06.63-11,.63s-8.05-.29-12.32-.88c-4.27-.59-8.51-1.66-12.7-3.21-4.19-1.55-8.23-3.6-12.13-6.16-3.9-2.55-7.48-5.78-10.75-9.68-3.27-3.9-6.1-8.57-8.49-14.02-2.39-5.45-4.17-11.77-5.34-18.98-.92-6.03-1.62-11.92-2.08-17.66-.46-5.74-.78-10.88-.94-15.4-.17-5.28-.25-10.31-.25-15.09v-87.38h35.7v106.48c0,9.89.8,18.21,2.39,24.96,1.59,6.75,3.75,12.19,6.47,16.34,2.72,4.15,5.95,7.12,9.68,8.93,3.73,1.8,7.73,2.7,12.01,2.7s9.05-.82,13.83-2.45c4.78-1.63,9.53-3.79,14.27-6.47,4.73-2.68,9.3-5.74,13.7-9.18,4.4-3.44,8.44-6.91,12.13-10.43,4.19-4.02,7.9-8.11,11.13-12.26,3.23-4.15,6.1-8.13,8.61-11.94,2.51-3.81,4.71-7.35,6.6-10.62s3.54-6.08,4.97-8.42v-87.62h35.45l-.13,110.76Z"/>
      <path class="cls-5" d="M2040.46,597.9l-3.45-1.85c-3.99-2.13-7.86-5.22-11.49-9.18-3.55-3.86-6.76-8.37-9.54-13.41-2.78-5.03-5.03-10.58-6.7-16.5-.81-2.89-1.45-5.84-1.92-8.84-2.31,2.73-5.01,5.74-8.06,8.94-3.24,3.41-6.88,6.97-10.82,10.57-4,3.66-8.43,7.17-13.18,10.46-4.75,3.28-9.89,6.3-15.27,8.97-5.45,2.7-11.27,4.83-17.3,6.32-2.58.71-5.7,1.29-9.25,1.73-7.1.88-15.51.95-24.36-.26-4.55-.62-9.1-1.78-13.54-3.42-4.45-1.65-8.81-3.86-12.94-6.57-4.2-2.75-8.11-6.27-11.62-10.45-3.5-4.17-6.55-9.21-9.08-14.98-2.52-5.73-4.41-12.45-5.63-19.95-.94-6.13-1.65-12.17-2.11-17.98-.46-5.78-.78-11.02-.95-15.57-.17-5.29-.25-10.41-.25-15.23v-91.38h43.7v110.48c0,9.54.77,17.63,2.28,24.04,1.48,6.26,3.47,11.33,5.93,15.06,2.31,3.52,5.02,6.05,8.08,7.52,6.61,3.2,14.49,2.92,22.8.07,4.53-1.55,9.1-3.63,13.59-6.17,4.55-2.58,8.99-5.55,13.21-8.85,4.26-3.33,8.24-6.75,11.83-10.18,4.02-3.86,7.64-7.84,10.73-11.82,3.15-4.06,5.99-7.99,8.43-11.69,2.46-3.73,4.64-7.24,6.48-10.42,1.68-2.92,3.14-5.4,4.43-7.54v-90.51h43.46l-.14,115.02c-.08,1.16-.12,2.38-.12,3.63,0,3.55.21,7.55.61,11.88.4,4.28,1.13,8.66,2.17,13.02,1.02,4.27,2.27,7.97,3.74,11.01,1.51,3.14,2.85,4.35,3.7,4.82l3.58,1.94-21.02,37.25ZM1860.98,407.32v83.38c0,4.74.08,9.77.25,14.96.16,4.42.48,9.55.93,15.21.45,5.62,1.14,11.47,2.04,17.38,1.11,6.8,2.81,12.86,5.05,17.98,2.22,5.08,4.88,9.47,7.89,13.05,3.01,3.58,6.33,6.58,9.88,8.9,3.63,2.38,7.44,4.32,11.33,5.75,3.9,1.44,7.89,2.45,11.86,3,8.17,1.12,15.87,1.03,22.29.25,3.19-.4,5.94-.91,8.16-1.52l.1-.03c5.48-1.35,10.77-3.28,15.71-5.73,5.04-2.5,9.84-5.32,14.28-8.38,4.45-3.08,8.6-6.37,12.33-9.78,3.8-3.47,7.31-6.9,10.42-10.17,3.11-3.27,5.84-6.32,8.13-9.05,2.32-2.77,4.29-5.07,5.88-6.84l6.7-7.45.28,10.01c.16,5.67,1,11.25,2.49,16.56,1.5,5.33,3.52,10.31,6,14.8,2.47,4.48,5.31,8.47,8.43,11.86,1.97,2.15,4,3.98,6.06,5.46l13.38-23.7c-1.42-1.5-2.7-3.44-3.86-5.86-1.71-3.55-3.16-7.8-4.31-12.62-1.13-4.72-1.92-9.48-2.35-14.13-.43-4.58-.65-8.83-.65-12.63,0-1.38.04-2.73.13-4.03l.12-106.62h-27.45v84.75l-.58.96c-1.4,2.3-3.01,5.03-4.92,8.34-1.92,3.32-4.18,6.97-6.73,10.83-2.55,3.87-5.51,7.98-8.79,12.2-3.33,4.28-7.2,8.55-11.51,12.69-3.79,3.62-7.97,7.21-12.44,10.7-4.53,3.54-9.3,6.74-14.19,9.5-4.92,2.79-9.95,5.07-14.95,6.78-10.34,3.54-20.37,3.68-28.87-.44-4.37-2.11-8.17-5.59-11.28-10.33-2.97-4.52-5.33-10.45-7.02-17.62-1.66-7.01-2.5-15.72-2.5-25.88v-102.48h-27.7Z"/>
    </g>
    <g>
      <path class="cls-4" d="M2233.13,477.12c8.05-.92,15.57-1.57,22.57-1.95,7-.38,13.64-.57,19.93-.57,16.34,0,29.96,1.26,40.86,3.77,10.89,2.52,19.63,5.89,26.21,10.12,6.58,4.23,11.25,9.12,14.02,14.65s4.19,11.27,4.27,17.22v.88c0,5.7-.8,11.4-2.39,17.1-1.59,5.7-4.4,11.11-8.42,16.22-4.02,5.11-9.45,9.83-16.28,14.14-6.83,4.32-15.42,8.03-25.77,11.12-10.35,3.1-22.65,5.51-36.9,7.23-14.25,1.72-30.8,2.58-49.66,2.58-13.91,0-27.22-.78-39.92-2.33-12.7-1.55-24.54-3.5-35.51-5.85-10.98-2.35-20.98-4.9-29.98-7.67-9.01-2.77-16.76-5.36-23.26-7.79-6.5-2.43-11.61-4.5-15.34-6.22-3.73-1.72-5.85-2.7-6.35-2.96l14.08-28.29c.08,0,1.74.73,4.97,2.2,3.23,1.47,7.77,3.25,13.64,5.34,5.87,2.1,12.91,4.38,21.12,6.85,8.21,2.47,17.35,4.76,27.41,6.85,10.06,2.1,20.89,3.86,32.5,5.28,11.61,1.43,23.74,2.14,36.4,2.14,17.43,0,32.27-.61,44.5-1.82,12.24-1.21,22.38-2.83,30.42-4.84s14.27-4.32,18.67-6.92c4.4-2.6,7.4-5.2,8.99-7.79,1.59-2.6,2.39-5.03,2.39-7.29,0-.67-.15-1.88-.44-3.64-.29-1.76-1.28-3.94-2.96-6.54-1.43-2.26-3.52-4.17-6.29-5.72s-6.06-2.77-9.87-3.65c-3.81-.88-8.11-1.51-12.89-1.88-4.78-.38-9.93-.57-15.46-.57-8.21,0-17.08.31-26.59.94-9.51.63-19.34,1.32-29.48,2.07-10.14.75-20.41,1.45-30.8,2.07-10.39.63-20.54.94-30.42.94-8.13,0-15.99-.29-23.57-.88-7.59-.59-14.69-1.59-21.31-3.02-6.62-1.42-12.66-3.35-18.1-5.78-5.45-2.43-10.14-5.49-14.08-9.18-3.94-3.69-6.98-8.09-9.12-13.2-2.14-5.11-3.21-11.06-3.21-17.85,0-4.86.75-9.72,2.26-14.58,1.51-4.86,4.17-9.53,7.98-14.02,3.81-4.48,9.01-8.68,15.59-12.57,6.58-3.9,14.96-7.36,25.14-10.37,10.18-3.02,22.38-5.45,36.58-7.29,14.21-1.84,30.82-2.97,49.85-3.39h6.66c11.57,0,23.19.59,34.89,1.76,11.69,1.18,23.09,2.81,34.2,4.9,11.1,2.1,21.2,4.44,30.3,7.04,9.09,2.6,16.95,5.03,23.57,7.29,6.62,2.26,11.84,4.21,15.65,5.85,3.81,1.63,5.93,2.58,6.35,2.83l-13.33,28.04c-.08-.08-1.7-.86-4.84-2.33-3.14-1.46-7.54-3.29-13.2-5.47-5.66-2.18-12.51-4.5-20.55-6.98-8.05-2.47-16.99-4.73-26.84-6.79-9.85-2.05-20.05-3.67-30.61-4.84-10.56-1.17-21.04-1.76-31.43-1.76-2.1,0-4.19.04-6.29.12-16.34.34-30.47,1.07-42.37,2.2-11.9,1.13-21.96,2.58-30.17,4.34-8.21,1.76-14.79,3.77-19.74,6.04-4.95,2.26-8.63,4.67-11.06,7.23-2.43,2.56-3.73,4.67-3.9,6.35-.17,1.68-.25,2.81-.25,3.39,0,2.18.42,4.4,1.26,6.66,1.17,3.02,3.31,5.53,6.41,7.54,3.1,2.01,6.93,3.65,11.5,4.9,4.57,1.26,9.85,2.16,15.84,2.7,5.99.54,12.46.82,19.42.82,10.64,0,22.13-.5,34.45-1.51,12.32-1,25.02-2.22,38.09-3.64Z"/>
      <path class="cls-4" d="M2221.56,593.64c-14.01,0-27.6-.79-40.4-2.36-12.75-1.56-24.82-3.54-35.87-5.91-11.03-2.36-21.24-4.97-30.32-7.75-9.06-2.78-16.96-5.43-23.49-7.87-6.56-2.45-11.81-4.58-15.61-6.34-3.71-1.71-5.88-2.72-6.47-3.01l-3.57-1.79,16.96-34.08h2.48q.99,0,6.62,2.56c3.12,1.42,7.6,3.17,13.33,5.22,5.77,2.06,12.81,4.35,20.93,6.79,8.06,2.43,17.16,4.7,27.07,6.77,9.9,2.06,20.72,3.82,32.17,5.23,11.38,1.4,23.46,2.11,35.91,2.11,17.22,0,32.06-.61,44.11-1.8,11.99-1.19,22.03-2.79,29.85-4.74,7.64-1.91,13.56-4.09,17.61-6.48,4.74-2.8,6.76-5.05,7.61-6.44,1.19-1.95,1.8-3.7,1.8-5.2,0-.11-.02-.78-.39-2.99-.11-.68-.57-2.24-2.37-5.03-1.08-1.72-2.72-3.18-4.88-4.4-2.42-1.36-5.38-2.45-8.81-3.24-3.61-.83-7.75-1.44-12.3-1.79-11.56-.92-25.81-.66-41.47.38-9.46.63-19.37,1.32-29.45,2.07-10.11.75-20.49,1.45-30.86,2.08-19.04,1.15-37.66,1.37-54.55.06-7.73-.6-15.08-1.64-21.84-3.1-6.86-1.47-13.22-3.51-18.89-6.04-5.83-2.6-10.94-5.93-15.18-9.91-4.33-4.05-7.72-8.96-10.07-14.58-2.33-5.58-3.51-12.1-3.51-19.4,0-5.24.82-10.55,2.44-15.77,1.67-5.36,4.61-10.55,8.76-15.42,4.09-4.81,9.67-9.32,16.6-13.42,6.84-4.05,15.6-7.67,26.05-10.76,10.33-3.06,22.85-5.56,37.2-7.42,14.28-1.85,31.19-3,50.27-3.43h6.75c11.63,0,23.5.6,35.28,1.78,11.75,1.18,23.37,2.85,34.54,4.95,11.16,2.11,21.47,4.5,30.65,7.12,9.14,2.61,17.14,5.09,23.77,7.35,6.67,2.28,12.04,4.28,15.93,5.95,5.97,2.56,6.47,2.86,6.83,3.07l3.12,1.87-17.27,36.34-3.6-3.47c-.49-.24-1.61-.78-4.16-1.97-3.03-1.41-7.39-3.22-12.95-5.36-5.55-2.14-12.38-4.45-20.29-6.89-7.9-2.42-16.81-4.68-26.48-6.7-9.68-2.02-19.85-3.63-30.24-4.78-10.38-1.15-20.8-1.74-30.99-1.74-2,0-4.06.04-6.13.12-16.26.33-30.42,1.07-42.14,2.19-11.69,1.11-21.69,2.55-29.71,4.26-7.89,1.69-14.25,3.63-18.91,5.76-4.46,2.04-7.76,4.18-9.83,6.35-2.66,2.79-2.81,3.98-2.82,3.99-.21,2.13-.23,2.83-.23,3,0,1.7.34,3.47,1.01,5.27.85,2.18,2.44,4.02,4.84,5.58,2.74,1.78,6.24,3.26,10.39,4.4,4.32,1.19,9.42,2.06,15.14,2.58,14.81,1.35,33.11.94,53.18-.7,12.23-1,25.01-2.22,37.98-3.63,8.09-.93,15.76-1.59,22.79-1.97,7.05-.38,13.82-.57,20.14-.57,16.57,0,30.61,1.3,41.76,3.87,11.29,2.61,20.54,6.19,27.48,10.65,7.16,4.61,12.35,10.06,15.43,16.22,3.02,6.05,4.6,12.43,4.7,18.96v.94c0,6.03-.85,12.14-2.54,18.17-1.73,6.19-4.8,12.11-9.13,17.62-4.29,5.45-10.1,10.51-17.29,15.05-7.1,4.49-16.11,8.38-26.76,11.58-10.52,3.15-23.16,5.63-37.57,7.37-14.35,1.73-31.22,2.6-50.14,2.6ZM2076.61,554.94c.72.33,1.58.73,2.61,1.21,3.62,1.67,8.69,3.73,15.07,6.11,6.37,2.39,14.12,4.98,23.03,7.72,8.86,2.72,18.84,5.27,29.65,7.58,10.82,2.31,22.65,4.26,35.16,5.79,12.48,1.52,25.74,2.3,39.43,2.3,18.6,0,35.15-.86,49.18-2.55,13.95-1.68,26.14-4.07,36.23-7.09,9.96-2.98,18.29-6.57,24.78-10.67,6.41-4.05,11.55-8.51,15.27-13.24,3.68-4.67,6.27-9.66,7.71-14.82,1.49-5.33,2.24-10.72,2.24-16.02v-.88c-.07-5.26-1.37-10.47-3.85-15.43-2.43-4.86-6.67-9.25-12.6-13.07-6.16-3.96-14.56-7.19-24.95-9.59-10.55-2.43-24-3.67-39.96-3.67-6.17,0-12.81.19-19.71.56-6.87.37-14.39,1.02-22.33,1.93h-.02c-13.05,1.43-25.9,2.66-38.2,3.66-20.54,1.68-39.27,2.08-54.56.69-6.19-.56-11.76-1.51-16.54-2.83-4.94-1.36-9.19-3.18-12.62-5.41-3.81-2.47-6.49-5.65-7.96-9.45-1.02-2.75-1.53-5.46-1.53-8.11,0-.47.03-1.38.27-3.79.26-2.64,1.84-5.41,4.98-8.71,2.81-2.96,6.83-5.61,12.3-8.11,5.19-2.37,12.11-4.5,20.56-6.31,8.33-1.78,18.63-3.27,30.63-4.41,11.92-1.13,26.28-1.88,42.66-2.22,2.09-.08,4.26-.13,6.37-.13,10.48,0,21.2.6,31.87,1.78,10.63,1.18,21.06,2.83,30.99,4.9,9.92,2.07,19.07,4.38,27.2,6.88,8.09,2.49,15.09,4.86,20.82,7.07,5.73,2.21,10.25,4.08,13.45,5.58.46.21.88.41,1.27.59l9.85-20.72c-.7-.31-1.55-.67-2.57-1.11-3.71-1.59-8.88-3.52-15.37-5.74-6.5-2.22-14.37-4.66-23.38-7.23-8.95-2.55-19.02-4.89-29.94-6.95-10.94-2.06-22.33-3.7-33.85-4.86-11.52-1.15-23.12-1.74-34.49-1.74h-6.66c-18.71.42-35.34,1.55-49.33,3.36-13.94,1.81-26.04,4.22-35.96,7.16-9.82,2.91-17.97,6.26-24.24,9.98-6.16,3.65-11.07,7.59-14.58,11.72-3.44,4.05-5.87,8.29-7.21,12.61-1.38,4.45-2.08,8.96-2.08,13.4,0,6.23.97,11.71,2.9,16.31,1.91,4.57,4.65,8.54,8.16,11.82,3.6,3.37,7.96,6.21,12.98,8.45,5.17,2.31,11,4.17,17.32,5.53,6.41,1.38,13.4,2.37,20.78,2.94,16.52,1.28,34.77,1.06,53.45-.07,10.33-.62,20.67-1.32,30.75-2.07,10.1-.75,20.03-1.45,29.51-2.08,16.06-1.06,30.68-1.32,42.63-.37,4.94.39,9.47,1.05,13.47,1.97,4.17.96,7.85,2.33,10.93,4.05,3.34,1.87,5.93,4.25,7.71,7.08,1.97,3.06,3.13,5.69,3.52,8.01.34,2.06.49,3.39.49,4.3,0,3-1,6.16-2.98,9.38-1.96,3.2-5.35,6.19-10.37,9.15-4.77,2.82-11.23,5.23-19.73,7.35-8.2,2.05-18.63,3.71-31,4.94-12.31,1.22-27.42,1.84-44.9,1.84-12.77,0-25.18-.73-36.88-2.17-11.67-1.43-22.71-3.23-32.83-5.33-10.13-2.11-19.47-4.44-27.74-6.94-8.25-2.48-15.42-4.81-21.31-6.92-5.94-2.12-10.63-3.96-13.95-5.47-.53-.24-1.01-.46-1.43-.65l-10.56,21.21Z"/>
    </g>
    <g>
      <path class="cls-5" d="M2418.55,587.62h-34.95v-184.3h34.95v184.3Z"/>
      <path class="cls-5" d="M2422.55,591.62h-42.95v-192.3h42.95v192.3ZM2387.6,583.62h26.95v-176.3h-26.95v176.3Z"/>
    </g>
    <g>
      <path class="cls-5" d="M2684.57,544.63c-5.62,6.79-12.47,13.1-20.56,18.92-8.09,5.83-17.01,10.88-26.78,15.15-9.76,4.28-20.18,7.61-31.24,9.99-11.06,2.39-22.38,3.58-33.94,3.58s-23.19-1.18-34.38-3.52c-11.19-2.35-21.73-5.66-31.62-9.93-9.89-4.27-18.98-9.38-27.28-15.34-8.3-5.95-15.42-12.51-21.37-19.68-5.95-7.17-10.6-14.83-13.95-23.01-3.35-8.17-5.03-16.62-5.03-25.33s1.68-17.16,5.03-25.33c3.35-8.17,8-15.84,13.95-23.01,5.95-7.17,13.07-13.72,21.37-19.68,8.3-5.95,17.39-11.06,27.28-15.34,9.89-4.28,20.43-7.59,31.62-9.93,11.19-2.34,22.65-3.52,34.38-3.52s22.88,1.2,33.94,3.58c11.06,2.39,21.48,5.7,31.24,9.93,9.76,4.23,18.69,9.26,26.78,15.09,8.09,5.83,14.94,12.13,20.56,18.92l-28.66,17.47c-.75-.92-2.03-2.41-3.83-4.46-1.8-2.05-4.25-4.36-7.35-6.91-3.1-2.55-6.85-5.2-11.25-7.92-4.4-2.72-9.55-5.2-15.46-7.42-5.91-2.22-12.62-4.06-20.12-5.53-7.5-1.46-15.86-2.2-25.08-2.2-15.93,0-29.92,1.91-41.99,5.72-12.07,3.82-22.19,8.82-30.36,15.02-8.17,6.2-14.35,13.26-18.54,21.18-4.19,7.92-6.33,14.02-6.41,18.29-.08,4.27-.13,6.54-.13,6.79,0,8.04,1.95,15.96,5.85,23.76,3.9,7.79,9.87,14.79,17.92,21,8.05,6.2,18.21,11.21,30.49,15.02,12.28,3.81,26.67,5.72,43.18,5.72,9.3,0,17.73-.75,25.27-2.26,7.54-1.51,14.29-3.39,20.24-5.66,5.95-2.26,11.13-4.8,15.53-7.61,4.4-2.81,8.13-5.47,11.19-7.98,3.06-2.52,5.47-4.78,7.23-6.79s2.97-3.39,3.65-4.15l28.66,17.35Z"/>
      <path class="cls-5" d="M2572.05,596.28c-11.94,0-23.79-1.21-35.2-3.6-11.4-2.39-22.29-5.81-32.38-10.18-10.11-4.37-19.54-9.67-28.02-15.76-8.54-6.12-15.98-12.98-22.12-20.37-6.18-7.45-11.09-15.54-14.58-24.04-3.54-8.62-5.33-17.65-5.33-26.85s1.79-18.24,5.33-26.85c3.49-8.51,8.39-16.6,14.58-24.04,6.14-7.39,13.58-14.24,22.12-20.37,8.5-6.09,17.92-11.39,28.03-15.76,10.08-4.36,20.98-7.78,32.38-10.18,11.42-2.39,23.26-3.6,35.21-3.6s23.5,1.24,34.79,3.67c11.27,2.43,22.03,5.85,31.99,10.17,9.98,4.33,19.24,9.54,27.52,15.51,8.33,6,15.5,12.6,21.3,19.62l2.95,3.56-35.58,21.69-2.21-2.69c-.71-.87-1.97-2.34-3.75-4.36-1.65-1.87-3.97-4.05-6.89-6.47-2.95-2.43-6.59-4.99-10.81-7.6-4.16-2.57-9.13-4.95-14.77-7.07-5.68-2.13-12.24-3.93-19.47-5.35-7.22-1.41-15.4-2.12-24.31-2.12-15.44,0-29.16,1.86-40.79,5.53-11.58,3.66-21.39,8.5-29.15,14.4-7.67,5.82-13.53,12.5-17.43,19.87-4.83,9.13-5.9,14.01-5.95,16.5-.08,4.18-.12,6.42-.12,6.71,0,7.38,1.83,14.77,5.42,21.97,3.61,7.22,9.25,13.82,16.78,19.62,7.63,5.88,17.47,10.72,29.23,14.37,11.83,3.68,25.96,5.54,42,5.54,9,0,17.23-.73,24.48-2.18,7.3-1.46,13.89-3.3,19.6-5.47,5.67-2.16,10.65-4.59,14.8-7.24,4.23-2.7,7.87-5.29,10.8-7.7,2.88-2.37,5.16-4.5,6.76-6.33,1.77-2.03,2.99-3.42,3.67-4.18l2.21-2.48,35.47,21.47-2.96,3.57c-5.81,7.02-12.98,13.62-21.3,19.62-8.28,5.96-17.53,11.2-27.51,15.57-9.96,4.36-20.72,7.81-32,10.24-11.29,2.44-22.99,3.67-34.79,3.67ZM2572.05,402.67c-11.39,0-22.68,1.16-33.56,3.43-10.88,2.28-21.26,5.54-30.85,9.69-9.58,4.14-18.51,9.16-26.54,14.92-7.99,5.73-14.92,12.11-20.63,18.98-5.67,6.82-10.15,14.21-13.33,21.97-3.14,7.65-4.73,15.66-4.73,23.82s1.59,16.17,4.73,23.81c3.18,7.76,7.67,15.15,13.33,21.97,5.71,6.87,12.64,13.26,20.63,18.98,8.02,5.75,16.95,10.77,26.54,14.91,9.6,4.15,19.98,7.41,30.85,9.69,10.88,2.28,22.17,3.43,33.56,3.43s22.36-1.18,33.1-3.49c10.76-2.32,21.01-5.6,30.48-9.75,9.46-4.14,18.22-9.1,26.04-14.73,6.36-4.58,11.97-9.51,16.75-14.72l-21.73-13.15c-.43.49-.9,1.03-1.43,1.63-1.91,2.19-4.43,4.56-7.7,7.24-3.18,2.61-7.08,5.39-11.58,8.27-4.61,2.94-10.08,5.62-16.26,7.97-6.12,2.33-13.15,4.29-20.88,5.84-7.77,1.55-16.53,2.34-26.05,2.34-16.84,0-31.77-1.98-44.37-5.9-12.68-3.94-23.36-9.21-31.74-15.68-8.49-6.54-14.9-14.07-19.05-22.38-4.16-8.32-6.27-16.92-6.27-25.55,0-.43.08-4.49.13-6.87.09-4.95,2.34-11.52,6.88-20.08,4.44-8.4,11.06-15.97,19.66-22.5,8.49-6.45,19.12-11.71,31.57-15.65,12.4-3.92,26.94-5.91,43.2-5.91,9.42,0,18.12.76,25.85,2.27,7.67,1.5,14.66,3.42,20.75,5.71,6.12,2.3,11.56,4.92,16.16,7.76,4.53,2.8,8.46,5.57,11.69,8.23,3.3,2.73,5.86,5.13,7.82,7.36.62.71,1.17,1.34,1.66,1.91l21.7-13.23c-4.77-5.2-10.4-10.14-16.76-14.73-7.82-5.63-16.58-10.56-26.03-14.66-9.48-4.11-19.74-7.37-30.49-9.69-10.74-2.32-21.87-3.49-33.1-3.49Z"/>
    </g>
    <g>
      <path class="cls-5" d="M2887.22,512.32c-.08,1.68-.13,3.39-.13,5.15,0,3.27.19,7.04.57,11.31.38,4.28,1.11,8.7,2.2,13.26,1.09,4.57,2.43,8.51,4.02,11.82,1.59,3.31,3.39,5.51,5.41,6.6l-16.22,30.3c-3.27-1.51-6.18-3.46-8.74-5.85-2.56-2.39-4.84-5.09-6.85-8.11-2.01-3.02-3.75-6.24-5.22-9.68-1.47-3.44-2.75-6.96-3.83-10.56-4.78,5.11-10.1,9.81-15.97,14.08-5.87,4.27-12.22,7.98-19.05,11.12-6.83,3.14-14.08,5.62-21.75,7.42s-15.7,2.83-24.08,3.08h-3.14c-7.04,0-14-.78-20.87-2.33-6.87-1.55-13.39-3.85-19.55-6.91-6.16-3.06-11.69-6.66-16.59-10.81-4.9-4.15-9.07-8.61-12.51-13.39-3.44-4.78-6.06-9.74-7.86-14.9-1.8-5.15-2.7-10.2-2.7-15.15,0-8.21,1.36-15.19,4.09-20.93,2.72-5.74,6.24-10.56,10.56-14.46,4.32-3.9,9.18-7.02,14.58-9.37,5.41-2.35,10.81-4.15,16.22-5.41,5.41-1.26,10.52-2.14,15.34-2.64,4.82-.5,8.82-.88,12.01-1.13l1.76-.12c5.11-.42,11-.77,17.66-1.07,6.66-.29,13.68-.5,21.06-.63,7.37-.13,14.9-.19,22.57-.19s15.06.04,22.19.13c0-4.78-1.63-9.74-4.9-14.9s-7.75-9.89-13.45-14.21c-5.7-4.31-12.47-7.88-20.3-10.69-7.84-2.81-16.28-4.21-25.33-4.21-5.03,0-10.2.5-15.53,1.51-5.32,1.01-10.73,2.64-16.22,4.9-5.49,2.26-11.04,5.18-16.66,8.74-5.62,3.56-11.19,7.9-16.72,13.01l-22.13-19.99c6.04-6.79,12.68-12.61,19.93-17.47,7.25-4.86,14.71-8.84,22.38-11.94,7.67-3.1,15.34-5.38,23.01-6.85s14.98-2.2,21.94-2.2c12.4,0,23.47,1.3,33.19,3.9,9.72,2.6,18.25,6.01,25.58,10.25,7.33,4.23,13.53,9.03,18.61,14.39,5.07,5.36,9.2,10.81,12.38,16.34,3.18,5.53,5.49,10.89,6.91,16.09,1.42,5.2,2.14,9.76,2.14,13.7,0,.08-.06.12-.19.12s-.19.04-.19.13h.38v38.72ZM2736.11,546.01c6.12,5.53,12.86,9.6,20.24,12.2,7.37,2.6,15,3.9,22.88,3.9,8.55,0,17.01-1.43,25.39-4.28,8.38-2.85,16.07-6.89,23.07-12.13,7-5.24,12.97-11.52,17.92-18.86,4.94-7.33,8.21-15.53,9.81-24.58-7.12-.08-14.56-.12-22.32-.12s-15.36.06-22.82.19c-7.46.12-14.54.31-21.25.56-6.71.25-12.57.59-17.6,1.01l-1.89.13c-8.47.75-15.42,1.72-20.87,2.89-5.45,1.17-9.76,2.72-12.95,4.65-3.19,1.93-5.41,4.29-6.66,7.1-1.26,2.81-1.89,6.18-1.89,10.12,0,3.19.82,6.18,2.45,8.99,1.63,2.81,3.79,5.55,6.47,8.23Z"/>
      <path class="cls-5" d="M2777.65,596.28h-3.2c-7.3,0-14.62-.82-21.75-2.42-7.16-1.61-14.04-4.05-20.45-7.23-6.42-3.19-12.27-7-17.4-11.34-5.13-4.34-9.56-9.09-13.17-14.11-3.64-5.06-6.47-10.42-8.39-15.91-1.94-5.55-2.93-11.09-2.93-16.47,0-8.77,1.5-16.39,4.47-22.65,2.94-6.19,6.8-11.48,11.49-15.71,4.62-4.17,9.89-7.55,15.67-10.07,5.6-2.43,11.29-4.33,16.9-5.63,5.55-1.29,10.87-2.21,15.83-2.72,4.83-.5,8.9-.89,12.11-1.14l1.79-.13c5.08-.42,11.07-.78,17.77-1.07,6.72-.29,13.84-.51,21.17-.63,7.32-.13,14.94-.19,22.63-.19,6.01,0,11.95.03,17.72.08-.63-2.8-1.91-5.71-3.81-8.71-2.99-4.72-7.2-9.15-12.49-13.16-5.35-4.05-11.82-7.45-19.24-10.11-7.37-2.64-15.44-3.98-23.98-3.98-4.76,0-9.73.48-14.78,1.44-5.03.95-10.22,2.52-15.44,4.67-5.25,2.16-10.64,4.99-16.04,8.42-5.39,3.42-10.82,7.65-16.15,12.57l-2.68,2.48-27.78-25.1,2.64-2.97c6.23-7.01,13.19-13.11,20.69-18.14,7.44-4.99,15.21-9.14,23.11-12.33,7.88-3.19,15.87-5.56,23.75-7.07,7.88-1.51,15.52-2.27,22.69-2.27,12.69,0,24.2,1.36,34.22,4.03,10.01,2.67,18.94,6.26,26.55,10.65,7.63,4.41,14.2,9.49,19.51,15.11,5.26,5.56,9.62,11.32,12.94,17.1,3.34,5.8,5.8,11.53,7.31,17.03,1.09,3.98,1.79,7.66,2.1,11.01h.18v42.92c-.08,1.58-.13,3.25-.13,4.95,0,3.14.18,6.83.55,10.96.36,4.07,1.07,8.33,2.11,12.69,1.02,4.27,2.28,7.97,3.74,11.01,1.51,3.14,2.85,4.36,3.71,4.82l3.5,1.9-19.88,37.13-3.42-1.58c-3.64-1.68-6.94-3.88-9.79-6.56-2.76-2.58-5.27-5.55-7.45-8.81-2.15-3.22-4.02-6.7-5.57-10.33-.66-1.55-1.29-3.12-1.88-4.71-3.69,3.51-7.67,6.82-11.89,9.9-6.06,4.41-12.7,8.29-19.73,11.53-7.05,3.24-14.62,5.83-22.51,7.68-7.9,1.85-16.26,2.92-24.87,3.18h-.06ZM2830.21,476.84c-7.65,0-15.22.06-22.5.19-7.26.12-14.31.33-20.95.63-6.6.29-12.5.65-17.51,1.06l-1.8.13c-3.11.25-7.11.62-11.88,1.12-4.62.48-9.62,1.34-14.85,2.56-5.14,1.2-10.37,2.94-15.53,5.18-4.98,2.16-9.52,5.08-13.5,8.67-3.9,3.52-7.14,7.97-9.63,13.2-2.46,5.17-3.7,11.64-3.7,19.22,0,4.48.83,9.13,2.48,13.83,1.67,4.77,4.13,9.44,7.33,13.88,3.23,4.49,7.21,8.75,11.85,12.67,4.64,3.92,9.95,7.38,15.79,10.28,5.84,2.9,12.11,5.12,18.65,6.59,6.55,1.48,13.28,2.23,19.99,2.23h3.08c8.05-.25,15.86-1.25,23.22-2.97,7.36-1.73,14.42-4.14,20.99-7.16,6.56-3.02,12.73-6.62,18.36-10.72,5.64-4.11,10.82-8.68,15.4-13.58l4.75-5.08,2.01,6.65c1.04,3.44,2.28,6.86,3.68,10.14,1.36,3.19,3,6.23,4.87,9.04,1.83,2.75,3.94,5.24,6.25,7.4,1.34,1.25,2.8,2.37,4.37,3.35l12.76-23.83c-1.44-1.51-2.74-3.47-3.91-5.92-1.71-3.54-3.16-7.79-4.31-12.62-1.13-4.73-1.9-9.39-2.29-13.84-.39-4.37-.58-8.3-.58-11.67,0-1.8.04-3.57.13-5.25v-34.62h-.38v-4c0-.6.12-1.16.34-1.67-.15-3.26-.81-7.03-1.96-11.23-1.33-4.84-3.52-9.94-6.52-15.15-3.02-5.24-6.99-10.48-11.82-15.59-4.78-5.06-10.74-9.66-17.7-13.68-7-4.04-15.28-7.35-24.62-9.85-9.35-2.5-20.17-3.76-32.16-3.76-6.67,0-13.8.72-21.19,2.13-7.37,1.41-14.86,3.64-22.26,6.63-7.38,2.99-14.67,6.88-21.65,11.56-5.88,3.94-11.41,8.6-16.47,13.89l16.45,14.86c4.81-4.22,9.7-7.91,14.57-11,5.79-3.67,11.61-6.72,17.28-9.06,5.71-2.36,11.43-4.08,17-5.14,5.54-1.05,11.01-1.58,16.27-1.58,9.47,0,18.44,1.5,26.68,4.45,8.18,2.93,15.37,6.72,21.37,11.26,6.06,4.59,10.91,9.72,14.42,15.25,3.67,5.78,5.52,11.51,5.52,17.04v4.05l-4.05-.05c-7.13-.08-14.58-.13-22.14-.13ZM2779.23,566.1c-8.3,0-16.44-1.39-24.21-4.13-7.84-2.76-15.11-7.13-21.59-13l-.14-.14c-2.92-2.91-5.31-5.96-7.11-9.05-1.99-3.41-2.99-7.11-2.99-11,0-4.49.75-8.44,2.23-11.75,1.59-3.55,4.36-6.54,8.24-8.89,3.6-2.18,8.24-3.86,14.18-5.14,5.59-1.2,12.78-2.2,21.36-2.96l1.97-.13c5.02-.42,11-.76,17.72-1.01,6.76-.25,13.94-.44,21.33-.57,14.66-.25,30.66-.23,45.25-.07l4.71.05-.82,4.64c-1.68,9.57-5.19,18.35-10.43,26.12-5.17,7.67-11.51,14.34-18.83,19.83-7.31,5.47-15.44,9.75-24.18,12.72-8.76,2.98-17.74,4.49-26.68,4.49ZM2738.86,543.11c5.67,5.12,12,8.93,18.81,11.32,14.46,5.1,30.47,4.77,45.66-.39,7.94-2.7,15.33-6.58,21.96-11.55,6.61-4.95,12.32-10.97,17-17.89,3.75-5.56,6.49-11.73,8.19-18.39-5.67-.05-11.5-.08-17.38-.08-7.73,0-15.39.06-22.75.19-7.34.12-14.46.31-21.17.56-6.6.25-12.46.58-17.42,1l-1.95.13c-8.17.73-15.02,1.68-20.3,2.81-4.99,1.07-8.93,2.48-11.72,4.16-2.5,1.51-4.16,3.25-5.08,5.31-1.02,2.28-1.54,5.13-1.54,8.49,0,2.49.62,4.77,1.91,6.97,1.44,2.48,3.38,4.95,5.78,7.35Z"/>
    </g>
  </g>
  <path class="cls-2" d="M586.7,502.78l-198.51,132.34c-13.19,8.79-30.86-.66-30.86-16.52v-263.17c0-6.64,3.32-12.84,8.85-16.52l198.51-132.15c13.19-8.78,30.85.68,30.85,16.52v262.98c0,6.64-3.32,12.84-8.84,16.52Z"/>
</svg>