<svg width="142" height="142" viewBox="0 0 142 142" fill="none" xmlns="http://www.w3.org/2000/svg">
<mask id="path-1-inside-1_3180_2291" fill="white">
<path d="M0 71C0 31.7878 31.7878 0 71 0V0C110.212 0 142 31.7878 142 71V71C142 110.212 110.212 142 71 142V142C31.7878 142 0 110.212 0 71V71Z"/>
</mask>
<path d="M0 71C0 31.7878 31.7878 0 71 0V0C110.212 0 142 31.7878 142 71V71C142 110.212 110.212 142 71 142V142C31.7878 142 0 110.212 0 71V71Z" fill="#44CD71"/>
<path d="M0 71M142 71M142 71M0 71M71 0M142 71M71 142M0 71M71 142V140C32.8924 140 2 109.108 2 71H0H-2C-2 111.317 30.6832 144 71 144V142ZM142 71H140C140 109.108 109.108 140 71 140V142V144C111.317 144 144 111.317 144 71H142ZM71 0V2C109.108 2 140 32.8924 140 71H142H144C144 30.6832 111.317 -2 71 -2V0ZM71 0V-2C30.6832 -2 -2 30.6832 -2 71H0H2C2 32.8924 32.8924 2 71 2V0Z" fill="black" mask="url(#path-1-inside-1_3180_2291)"/>
<path d="M33.725 61.8267V53.858H35.0772V61.8267H33.725ZM30.4167 58.5185V57.1662H38.3855V58.5185H30.4167ZM40.7037 64V62.9134L44.7846 58.446C45.2636 57.9228 45.658 57.468 45.9679 57.0817C46.2778 56.6913 46.5072 56.325 46.6561 55.983C46.809 55.6368 46.8855 55.2746 46.8855 54.8963C46.8855 54.4616 46.7808 54.0853 46.5716 53.7674C46.3663 53.4495 46.0846 53.204 45.7264 53.0309C45.3682 52.8578 44.9657 52.7713 44.519 52.7713C44.0441 52.7713 43.6296 52.8699 43.2754 53.0671C42.9252 53.2603 42.6536 53.532 42.4604 53.8821C42.2712 54.2322 42.1767 54.6428 42.1767 55.1136H40.752C40.752 54.3892 40.919 53.7533 41.253 53.206C41.5871 52.6586 42.0418 52.232 42.6174 51.9261C43.1969 51.6203 43.8469 51.4673 44.5673 51.4673C45.2917 51.4673 45.9337 51.6203 46.4931 51.9261C47.0525 52.232 47.4912 52.6445 47.8091 53.1637C48.1271 53.6829 48.286 54.2604 48.286 54.8963C48.286 55.3511 48.2035 55.7958 48.0385 56.2305C47.8775 56.6611 47.5958 57.142 47.1934 57.6733C46.7949 58.2005 46.2415 58.8445 45.5332 59.6051L42.7562 62.5753V62.6719H48.5034V64H40.7037ZM55.0293 64.169C54.1197 64.169 53.345 63.9215 52.7051 63.4265C52.0652 62.9274 51.5762 62.205 51.2381 61.2592C50.9 60.3094 50.731 59.1624 50.731 57.8182C50.731 56.482 50.9 55.341 51.2381 54.3952C51.5802 53.4454 52.0712 52.721 52.7111 52.2219C53.3551 51.7189 54.1278 51.4673 55.0293 51.4673C55.9308 51.4673 56.7015 51.7189 57.3414 52.2219C57.9854 52.721 58.4764 53.4454 58.8145 54.3952C59.1565 55.341 59.3276 56.482 59.3276 57.8182C59.3276 59.1624 59.1586 60.3094 58.8205 61.2592C58.4824 62.205 57.9934 62.9274 57.3535 63.4265C56.7136 63.9215 55.9389 64.169 55.0293 64.169ZM55.0293 62.8409C55.9308 62.8409 56.6311 62.4062 57.1301 61.5369C57.6292 60.6676 57.8787 59.428 57.8787 57.8182C57.8787 56.7476 57.764 55.8361 57.5346 55.0835C57.3092 54.3308 56.9833 53.7573 56.5566 53.3629C56.1341 52.9685 55.6249 52.7713 55.0293 52.7713C54.1358 52.7713 53.4376 53.212 52.9345 54.0934C52.4314 54.9708 52.1799 56.2124 52.1799 57.8182C52.1799 58.8887 52.2926 59.7983 52.5179 60.5469C52.7433 61.2955 53.0673 61.8649 53.4899 62.2553C53.9165 62.6457 54.4296 62.8409 55.0293 62.8409ZM67.1273 64H65.5577L70.0975 51.6364H71.6429L76.1827 64H74.6131L70.9185 53.5923H70.8219L67.1273 64ZM67.7069 59.1705H74.0336V60.4986H67.7069V59.1705ZM87.9125 51.6364V64H86.4636L79.7264 54.2926H79.6056V64H78.1085V51.6364H79.5574L86.3187 61.3679H86.4395V51.6364H87.9125ZM81.1511 50.5256L80.0403 50.4773C80.0403 49.8615 80.2154 49.3584 80.5655 48.968C80.9197 48.5736 81.3564 48.3764 81.8755 48.3764C82.1049 48.3764 82.3082 48.4167 82.4853 48.4972C82.6623 48.5736 82.8314 48.6622 82.9924 48.7628C83.1533 48.8634 83.3184 48.954 83.4874 49.0344C83.6605 49.1109 83.8556 49.1491 84.073 49.1491C84.3024 49.1491 84.4956 49.0606 84.6525 48.8835C84.8135 48.7024 84.894 48.4851 84.894 48.2315L85.9806 48.3281C85.9806 48.956 85.8036 49.455 85.4494 49.8253C85.0993 50.1955 84.6646 50.3807 84.1454 50.3807C83.8677 50.3807 83.6383 50.3424 83.4572 50.266C83.2761 50.1855 83.1151 50.0949 82.9743 49.9943C82.8334 49.8937 82.6845 49.8052 82.5275 49.7287C82.3706 49.6482 82.1774 49.608 81.948 49.608C81.7186 49.608 81.5274 49.6985 81.3745 49.8796C81.2256 50.0567 81.1511 50.272 81.1511 50.5256ZM101.34 57.8182C101.34 59.1222 101.105 60.2491 100.634 61.1989C100.163 62.1487 99.517 62.8812 98.6959 63.3963C97.8749 63.9115 96.9372 64.169 95.8827 64.169C94.8283 64.169 93.8905 63.9115 93.0695 63.3963C92.2485 62.8812 91.6025 62.1487 91.1317 61.1989C90.6608 60.2491 90.4253 59.1222 90.4253 57.8182C90.4253 56.5142 90.6608 55.3873 91.1317 54.4375C91.6025 53.4877 92.2485 52.7552 93.0695 52.2401C93.8905 51.7249 94.8283 51.4673 95.8827 51.4673C96.9372 51.4673 97.8749 51.7249 98.6959 52.2401C99.517 52.7552 100.163 53.4877 100.634 54.4375C101.105 55.3873 101.34 56.5142 101.34 57.8182ZM99.8912 57.8182C99.8912 56.7476 99.7122 55.8441 99.354 55.1076C98.9998 54.3711 98.5189 53.8137 97.9111 53.4354C97.3074 53.0571 96.6313 52.8679 95.8827 52.8679C95.1341 52.8679 94.456 53.0571 93.8483 53.4354C93.2446 53.8137 92.7636 54.3711 92.4055 55.1076C92.0513 55.8441 91.8742 56.7476 91.8742 57.8182C91.8742 58.8887 92.0513 59.7923 92.4055 60.5288C92.7636 61.2653 93.2446 61.8227 93.8483 62.201C94.456 62.5793 95.1341 62.7685 95.8827 62.7685C96.6313 62.7685 97.3074 62.5793 97.9111 62.201C98.5189 61.8227 98.9998 61.2653 99.354 60.5288C99.7122 59.7923 99.8912 58.8887 99.8912 57.8182ZM110.619 54.7273C110.546 54.1155 110.253 53.6406 109.737 53.3026C109.222 52.9645 108.59 52.7955 107.842 52.7955C107.295 52.7955 106.816 52.884 106.405 53.0611C105.999 53.2382 105.681 53.4817 105.451 53.7915C105.226 54.1014 105.113 54.4536 105.113 54.848C105.113 55.178 105.192 55.4618 105.349 55.6992C105.51 55.9326 105.715 56.1278 105.964 56.2848C106.214 56.4377 106.476 56.5645 106.749 56.6651C107.023 56.7617 107.274 56.8402 107.504 56.9006L108.759 57.2386C109.081 57.3232 109.44 57.4399 109.834 57.5888C110.233 57.7377 110.613 57.9409 110.975 58.1985C111.341 58.4521 111.643 58.7781 111.881 59.1765C112.118 59.5749 112.237 60.0639 112.237 60.6435C112.237 61.3116 112.062 61.9152 111.712 62.4545C111.365 62.9938 110.858 63.4225 110.19 63.7404C109.526 64.0584 108.719 64.2173 107.769 64.2173C106.884 64.2173 106.117 64.0745 105.469 63.7887C104.825 63.503 104.318 63.1045 103.948 62.5934C103.582 62.0823 103.375 61.4886 103.326 60.8125H104.872C104.912 61.2794 105.069 61.6657 105.343 61.9716C105.62 62.2734 105.97 62.4988 106.393 62.6477C106.82 62.7926 107.278 62.8651 107.769 62.8651C108.341 62.8651 108.854 62.7725 109.309 62.5874C109.764 62.3982 110.124 62.1366 110.389 61.8026C110.655 61.4645 110.788 61.0701 110.788 60.6193C110.788 60.2088 110.673 59.8748 110.444 59.6172C110.214 59.3596 109.913 59.1503 109.538 58.9893C109.164 58.8284 108.759 58.6875 108.325 58.5668L106.804 58.1321C105.838 57.8544 105.073 57.458 104.509 56.9428C103.946 56.4277 103.664 55.7536 103.664 54.9205C103.664 54.2282 103.851 53.6245 104.226 53.1094C104.604 52.5902 105.111 52.1877 105.747 51.902C106.387 51.6122 107.101 51.4673 107.89 51.4673C108.687 51.4673 109.395 51.6102 110.015 51.896C110.635 52.1777 111.126 52.564 111.488 53.055C111.854 53.546 112.048 54.1035 112.068 54.7273H110.619ZM38.7213 84V71.6364H46.1829V72.9645H40.2184V77.142H45.7966V78.4702H40.2184V82.6719H46.2795V84H38.7213ZM49.6059 71.6364L52.7934 76.7798H52.89L56.0775 71.6364H57.8402L53.9525 77.8182L57.8402 84H56.0775L52.89 78.9531H52.7934L49.6059 84H47.8431L51.8275 77.8182L47.8431 71.6364H49.6059ZM59.7887 84V71.6364H63.9662C64.9362 71.6364 65.729 71.8114 66.3448 72.1616C66.9646 72.5077 67.4234 72.9766 67.7212 73.5682C68.019 74.1598 68.1679 74.8198 68.1679 75.5483C68.1679 76.2768 68.019 76.9388 67.7212 77.5344C67.4274 78.1301 66.9726 78.605 66.3568 78.9592C65.7411 79.3093 64.9523 79.4844 63.9904 79.4844H60.996V78.1562H63.9421C64.6061 78.1562 65.1394 78.0415 65.5419 77.8121C65.9443 77.5827 66.2361 77.2728 66.4172 76.8825C66.6023 76.488 66.6949 76.0433 66.6949 75.5483C66.6949 75.0533 66.6023 74.6106 66.4172 74.2202C66.2361 73.8298 65.9423 73.5239 65.5358 73.3026C65.1293 73.0772 64.59 72.9645 63.9179 72.9645H61.2858V84H59.7887ZM70.5797 84V71.6364H78.0413V72.9645H72.0768V77.142H77.655V78.4702H72.0768V82.6719H78.1379V84H70.5797ZM80.7398 84V71.6364H84.9174C85.8833 71.6364 86.6762 71.8014 87.2959 72.1314C87.9157 72.4574 88.3745 72.9061 88.6724 73.4776C88.9702 74.0491 89.1191 74.6991 89.1191 75.4276C89.1191 76.156 88.9702 76.802 88.6724 77.3654C88.3745 77.9289 87.9177 78.3716 87.302 78.6935C86.6862 79.0115 85.8994 79.1705 84.9415 79.1705H81.5609V77.8182H84.8932C85.5533 77.8182 86.0845 77.7216 86.487 77.5284C86.8935 77.3352 87.1873 77.0616 87.3684 76.7074C87.5535 76.3492 87.6461 75.9226 87.6461 75.4276C87.6461 74.9325 87.5535 74.4999 87.3684 74.1296C87.1833 73.7594 86.8874 73.4736 86.481 73.2724C86.0745 73.0671 85.5372 72.9645 84.8691 72.9645H82.237V84H80.7398ZM86.5594 78.446L89.6021 84H87.8634L84.8691 78.446H86.5594ZM93.111 71.6364V84H91.6139V71.6364H93.111ZM96.1129 84V71.6364H103.575V72.9645H97.61V77.142H103.188V78.4702H97.61V82.6719H103.671V84H96.1129ZM68.2683 95.5H66.7711C66.6826 95.0694 66.5276 94.6911 66.3063 94.3651C66.089 94.0391 65.8233 93.7654 65.5094 93.544C65.1995 93.3187 64.8554 93.1496 64.4771 93.0369C64.0988 92.9242 63.7044 92.8679 63.2939 92.8679C62.5453 92.8679 61.8671 93.0571 61.2594 93.4354C60.6557 93.8137 60.1748 94.3711 59.8166 95.1076C59.4624 95.8441 59.2853 96.7476 59.2853 97.8182C59.2853 98.8887 59.4624 99.7923 59.8166 100.529C60.1748 101.265 60.6557 101.823 61.2594 102.201C61.8671 102.579 62.5453 102.768 63.2939 102.768C63.7044 102.768 64.0988 102.712 64.4771 102.599C64.8554 102.487 65.1995 102.32 65.5094 102.098C65.8233 101.873 66.089 101.597 66.3063 101.271C66.5276 100.941 66.6826 100.563 66.7711 100.136H68.2683C68.1556 100.768 67.9503 101.334 67.6525 101.833C67.3547 102.332 66.9844 102.756 66.5417 103.107C66.099 103.453 65.602 103.716 65.0506 103.897C64.5033 104.078 63.9177 104.169 63.2939 104.169C62.2394 104.169 61.3017 103.911 60.4806 103.396C59.6596 102.881 59.0137 102.149 58.5428 101.199C58.0719 100.249 57.8365 99.1222 57.8365 97.8182C57.8365 96.5142 58.0719 95.3873 58.5428 94.4375C59.0137 93.4877 59.6596 92.7552 60.4806 92.2401C61.3017 91.7249 62.2394 91.4673 63.2939 91.4673C63.9177 91.4673 64.5033 91.5579 65.0506 91.739C65.602 91.9201 66.099 92.1857 66.5417 92.5359C66.9844 92.882 67.3547 93.3046 67.6525 93.8036C67.9503 94.2987 68.1556 94.8641 68.2683 95.5ZM72.1847 91.6364V104H70.6876V91.6364H72.1847ZM75.6937 104H74.1241L78.6639 91.6364H80.2093L84.7491 104H83.1795L79.4849 93.5923H79.3883L75.6937 104ZM76.2733 99.1705H82.6V100.499H76.2733V99.1705Z" fill="black"/>
</svg>
