<?xml version="1.0" encoding="UTF-8"?>
<svg id="Capa_1" data-name="Capa 1" xmlns="http://www.w3.org/2000/svg" viewBox="0 0 776.98 650.24">
  <defs>
    <style>
      .cls-1 {
        stroke: #44cd71;
        stroke-miterlimit: 10;
        stroke-width: 38px;
      }

      .cls-1, .cls-2 {
        fill: #f26b78;
      }

      .cls-3 {
        fill: #fcc459;
      }

      .cls-4 {
        fill: #44cd71;
      }
    </style>
  </defs>
  <path class="cls-3" d="M125.36,171.32l202.43,134.95c6.67,4.45,15.35,4.45,22.02,0l202.43-134.95c11.79-7.86,11.79-25.18,0-33.03L349.81,3.33c-6.67-4.45-15.35-4.45-22.02,0L125.36,138.29c-11.79,7.86-11.79,25.18,0,33.03Z"/>
  <path class="cls-4" d="M258.07,528.63c-32.89-20.67-59.55-19.49-59.55,16.62,0,40.15,26.66,70.81,59.55,91.48,32.89,20.67,59.55,19.49,59.55-16.62,0-40.15-26.66-70.81-59.55-91.48Z"/>
  <path class="cls-4" d="M79.41,206.62v283.75c0,6.4,5.01,11.67,11.4,12l15.66.81c6.87.36,12.64-5.12,12.64-12v-156.26c0-9.58,10.66-15.31,18.65-10.03l134.77,89.09c3.37,2.23,5.39,5.99,5.39,10.03v191.27c0,4.67,2.71,8.92,6.95,10.9l15.66,7.29c7.97,3.71,17.09-2.11,17.09-10.9v-273.17c0-4.02-2.01-7.77-5.35-10L98.09,196.62c-7.99-5.33-18.69.4-18.69,10Z"/>
  <path class="cls-4" d="M59.55,405.69C26.66,385.02,0,386.2,0,422.31c0,40.15,26.66,70.81,59.55,91.48,32.89,20.67,59.55,19.49,59.55-16.62,0-40.15-26.66-70.81-59.55-91.48Z"/>
  <path class="cls-4" d="M735.73,339.15c-37.95-37.95-83.39-54.05-112.91-24.52-32.83,32.83-13.43,74.96,24.52,112.91,37.95,37.95,83.39,54.05,112.91,24.52,32.83-32.83,13.43-74.96-24.52-112.91Z"/>
  <path class="cls-4" d="M734.05,367.44c37.95-37.95,54.05-83.39,24.52-112.91-32.83-32.83-74.96-13.43-112.91,24.52-37.95,37.95-54.05,83.39-24.52,112.91,32.83,32.83,74.96,13.43,112.91-24.52Z"/>
  <line class="cls-1" x1="683.33" y1="360.2" x2="528.42" y2="360.2"/>
  <path class="cls-2" d="M586.7,502.78l-198.51,132.34c-13.19,8.79-30.86-.66-30.86-16.52v-263.17c0-6.64,3.32-12.84,8.85-16.52l198.51-132.15c13.19-8.78,30.85.68,30.85,16.52v262.98c0,6.64-3.32,12.84-8.84,16.52Z"/>
</svg>