<svg width="65" height="65" viewBox="0 0 65 65" fill="none" xmlns="http://www.w3.org/2000/svg">
<path d="M27.4996 59V18.0703L9.53478 36.0352C7.58216 37.9878 4.41709 37.9878 2.46447 36.0352C0.511845 34.0825 0.511845 30.9175 2.46447 28.9648L28.9645 2.46484L29.1442 2.29395C30.0614 1.46344 31.2564 1 32.4996 1C33.8257 1 35.0971 1.52716 36.0348 2.46484L62.5348 28.9648C64.4874 30.9175 64.4874 34.0825 62.5348 36.0352C60.5822 37.9878 57.4171 37.9878 55.4645 36.0352L37.4996 18.0703V59C37.4996 61.7614 35.261 64 32.4996 64C29.7382 64 27.4996 61.7614 27.4996 59Z" fill="#F26B78" stroke="black" stroke-width="2" stroke-linecap="round" stroke-linejoin="round"/>
</svg>
