<svg width="29" height="22" viewBox="0 0 29 22" fill="none" xmlns="http://www.w3.org/2000/svg">
<path d="M11.3907 15.5L18.7804 10.85L11.3907 6.2V15.5ZM27.8503 3.3635C28.0354 4.092 28.1635 5.0685 28.2489 6.3085C28.3486 7.5485 28.3913 8.618 28.3913 9.548L28.4767 10.85C28.4767 14.2445 28.2489 16.74 27.8503 18.3365C27.4943 19.7315 26.6685 20.6305 25.387 21.018C24.7178 21.2195 23.4933 21.359 21.6138 21.452C19.7629 21.5605 18.0685 21.607 16.5023 21.607L14.2384 21.7C8.27249 21.7 4.55628 21.452 3.08973 21.018C1.80827 20.6305 0.982448 19.7315 0.626488 18.3365C0.44139 17.608 0.313244 16.6315 0.227814 15.3915C0.128145 14.1515 0.0854301 13.082 0.0854301 12.152L0 10.85C0 7.4555 0.227814 4.96 0.626488 3.3635C0.982448 1.9685 1.80827 1.0695 3.08973 0.682C3.75893 0.4805 4.98343 0.341 6.8629 0.248C8.71388 0.1395 10.4082 0.0929999 11.9745 0.0929999L14.2384 0C20.2042 0 23.9205 0.248 25.387 0.682C26.6685 1.0695 27.4943 1.9685 27.8503 3.3635Z" fill="white"/>
</svg>
